<svg xmlns="http://www.w3.org/2000/svg" xmlns:xlink="http://www.w3.org/1999/xlink" viewBox="0 0 826 641.83"><defs><style>.cls-1{fill-opacity:0.33;fill:url(#linear-gradient);}.cls-2{fill:#545454;}.cls-3{fill:#f9e698;}.cls-4{fill:#59595b;}.cls-5{fill:#808183;}.cls-6{fill:#4f4f4f;}.cls-7{opacity:0.14;}.cls-12,.cls-8,.cls-9{fill:none;stroke-linecap:round;stroke-linejoin:round;}.cls-8{stroke:#000;stroke-width:2px;}.cls-9{stroke:#7d8f91;}.cls-12,.cls-9{stroke-width:0.75px;}.cls-10{opacity:0.15;}.cls-11{fill:#bbea78;}.cls-12{stroke:#496366;}</style><linearGradient id="linear-gradient" x1="413" y1="552.22" x2="413" y2="126.22" gradientUnits="userSpaceOnUse"><stop offset="0" stop-color="#fff" stop-opacity="0"/><stop offset="0.62" stop-color="#f9e698"/></linearGradient></defs><title>404</title><g id="Layer_2" data-name="Layer 2"><g id="Layer_1-2" data-name="Layer 1"><g id="bulb"><polygon class="cls-1" points="826 545.93 0 552.22 384 126.22 435 127.12 826 545.93"/><rect class="cls-2" x="408.41" y="2.22" width="1.33" height="96.62" transform="translate(818.14 101.06) rotate(180)"/><path class="cls-3" d="M373.28,152.24a36,36,0,1,0,61.46-25.41,40.81,40.81,0,0,1-10.57-18.15L421.26,98H397.68l-2.75,10.16A40.91,40.91,0,0,1,384,126.58,35.86,35.86,0,0,0,373.28,152.24Z"/><path class="cls-4" d="M403.81,78.05h11.5c3.26,0,6.05.92,6.23,5.77l1,18.71-26,.26,1.11-19C397.77,79,400.55,78.05,403.81,78.05Z"/><rect class="cls-5" x="398.92" y="87.44" width="21.11" height="1.76" rx="0.67"/><rect class="cls-5" x="398.92" y="92.13" width="21.11" height="1.76" rx="0.67"/><rect class="cls-2" x="436.2" y="2.22" width="1.15" height="146.79"/><path class="cls-6" d="M436.53,148.69a4.92,4.92,0,1,1-4.91,4.92,4.92,4.92,0,0,1,4.91-4.92m0-1a5.92,5.92,0,1,0,5.92,5.92,5.91,5.91,0,0,0-5.92-5.92Z"/></g><g class="cls-7"><path class="cls-8" d="M491.85,544.59c12.06,18.55,22.18,40.12,34.25,58.67-13.25-12.15-17.37-24.57-30.62-36.71"/><path class="cls-8" d="M491.92,594.34q8.35,2.49,17.28,4.82,8.66,2.25,16.9,4.1-8,.39-16.14.87-8.41.48-16.71,1"/><path class="cls-8" d="M502.29,634.09q11.19-15.18,23.81-30.83,7.7-9.51,15.33-18.43"/><path class="cls-8" d="M519.22,640.83a189.89,189.89,0,0,0,6.88-37.57q3.51,9.12,6.93,18.87,3.29,9.4,6.12,18.39"/><path class="cls-8" d="M560.33,626.91,526.1,603.26c24.82,3.26,39.37-1.85,64.2,1.41"/><path class="cls-8" d="M491.85,544.59c37.66,34.84,68.87,48.8,116.47,64.53"/><path class="cls-8" d="M521.85,596.59a18.73,18.73,0,0,0,4.47,1.57,6,6,0,0,0,4.47-.86,7,7,0,0,0,2.39,6.86,3,3,0,0,0-1.09,1.7,2.85,2.85,0,0,0,.25,1.94,2.48,2.48,0,0,0-3.71,2.12,1.53,1.53,0,0,0-1.82-.4,3.68,3.68,0,0,0-1.49,1.31,3.36,3.36,0,0,0-1.65-1.82,2,2,0,0,0-2.19.18,9.66,9.66,0,0,0-.81-3.22,4.16,4.16,0,0,0-2.21-2.28c.22-.05.29-.34.28-.58a2.57,2.57,0,0,0-1.08-2,2.93,2.93,0,0,0,1.66-1.43,3.23,3.23,0,0,0,.2-2.27A2,2,0,0,0,521.85,596.59Z"/><path class="cls-8" d="M533.31,594.41a11.68,11.68,0,0,0,3.3,10.12,9.65,9.65,0,0,0-1.47,2.26,3.47,3.47,0,0,0-.26,2.6,4.57,4.57,0,0,0-3.25,1.07,4.66,4.66,0,0,0-1.71,3,3.21,3.21,0,0,0-2.94-.79,3,3,0,0,0-2.22,1.91,4.65,4.65,0,0,0-2.13-3.26c-1.15-.64-2.75-.74-3.56.27a12.37,12.37,0,0,0-1.71-5.79c-.54-.91-1.23-1.94-2.24-2.12a2.49,2.49,0,0,0-1.25-3.32,3.92,3.92,0,0,0,2.89-1.73,4.11,4.11,0,0,0,.6-3.35,1.72,1.72,0,0,0,1.71-.43,1.9,1.9,0,0,0,.46-1.78,13.52,13.52,0,0,0,6.92,2.41C528.86,595.56,531.24,595.63,533.31,594.41Z"/><path class="cls-8" d="M536.62,590.35a21.64,21.64,0,0,0,4.8,14.86,7,7,0,0,0-2.76,6.78,9.43,9.43,0,0,0-7.48,5.38,5.44,5.44,0,0,0-3.57-1.17,5.12,5.12,0,0,0-3.34,1.55,6.35,6.35,0,0,0-2.88-2.87,5.93,5.93,0,0,0-4-.4,13.79,13.79,0,0,0-6.24-10.43,4.91,4.91,0,0,0-1.86-4.93,5.61,5.61,0,0,0,3.95-2.36,6.23,6.23,0,0,0,.94-4.68,2.83,2.83,0,0,0,2-.84,2.61,2.61,0,0,0,.68-2,19.33,19.33,0,0,0,9.73,2.72A30,30,0,0,0,536.62,590.35Z"/><path class="cls-8" d="M539.53,586.83a18.93,18.93,0,0,0,1,10.07,38,38,0,0,0,5,8.91A8,8,0,0,0,543,610a8.53,8.53,0,0,0,.17,5,30.78,30.78,0,0,0-6.05,2.26,9.87,9.87,0,0,0-4.41,4.35,7.68,7.68,0,0,0-4.91-1.16,7.13,7.13,0,0,0-4.45,2.08,8.42,8.42,0,0,0-3.39-4.82,4.78,4.78,0,0,0-5.38-.1,15.62,15.62,0,0,0-4.35-11A7.52,7.52,0,0,0,507,604.4a5.63,5.63,0,0,0-.51-5.45,2.47,2.47,0,0,0-.89-.87,14.18,14.18,0,0,0,5-2.44,5,5,0,0,0,1.62-5.07,3.67,3.67,0,0,0,2.46-1.22,3.09,3.09,0,0,0,.73-1.44,2.24,2.24,0,0,0-.3-1.62C522.64,589.89,532.18,590.28,539.53,586.83Z"/><path class="cls-8" d="M502.11,597.11A7.76,7.76,0,0,0,507.4,594a8.58,8.58,0,0,0,1.44-6.24,5.41,5.41,0,0,0,5-3.59,10.57,10.57,0,0,0,12-1.22,15.1,15.1,0,0,0,15.71,1.94A41.62,41.62,0,0,0,554,607.28a14.5,14.5,0,0,0-2.63,13.21,17.77,17.77,0,0,0-15.7,9.58,11.13,11.13,0,0,0-7.19-2.14,9.84,9.84,0,0,0-6.47,3,12.09,12.09,0,0,0-3.85-6.22,11.36,11.36,0,0,0-6.55-2.94,28.78,28.78,0,0,0-9-17,5.22,5.22,0,0,0,1.28-3.64A6.83,6.83,0,0,0,502.11,597.11Z"/><path class="cls-8" d="M525.94,589q-.15-7-.29-14"/><path class="cls-8" d="M525.71,574.63a16.7,16.7,0,0,1-16.49,2.94,4.06,4.06,0,0,1-2.14,4.12,6.37,6.37,0,0,1-4.71.27,10.38,10.38,0,0,1,1.19,8.33,9.12,9.12,0,0,1-5.43,5.91,16.62,16.62,0,0,1,1.32,3,5.75,5.75,0,0,1,.13,3.18,3.17,3.17,0,0,1-2,2.23,33.47,33.47,0,0,1,11.68,20.34c1.36-.69,2.83-.12,4.21.64a17.2,17.2,0,0,1,7.31,8,16.5,16.5,0,0,1,16.1.41c1.72-3.34,4.6-5.43,7.86-7.12a52.77,52.77,0,0,1,10.38-3.63A19.49,19.49,0,0,1,562,607.91a34.71,34.71,0,0,1-11.79-18"/><path class="cls-8" d="M515,567.48A11.41,11.41,0,0,1,504.39,570a11.09,11.09,0,0,1-9.82,4.75,35.63,35.63,0,0,1,1.85,15.13c-.19,2-.77,4.25-2.52,5a8.28,8.28,0,0,1,2.1,5,7.72,7.72,0,0,1-1.4,5.09c2.7,1.22,4.12,4.47,5.34,7.26,2.51,5.76,5.06,11.8,4.83,18a14.5,14.5,0,0,1,8.93,2.32,15.51,15.51,0,0,1,6,7.21,18,18,0,0,1,18.55-2.2,12.51,12.51,0,0,1,4.7-5.53,29.52,29.52,0,0,1,6.53-3.38,99.12,99.12,0,0,1,9.54-3.24c-.09-7,2.55-16.86,8.52-19.8-4.1-3.32-6.16-4.78-7.39-10"/></g><path class="cls-9" d="M497,548.68q15.28,23,30.55,46l-33.84-29.93"/><path class="cls-9" d="M498.15,587.67q7.19,2,14.85,3.81c5,1.18,9.8,2.25,14.52,3.22q-6.93.43-13.93.92c-4.85.34-9.65.7-14.43,1.07"/><path class="cls-9" d="M506.61,620.72q9.82-12.79,20.91-26,6.75-8,13.45-15.57"/><path class="cls-9" d="M521.13,626.14a155.23,155.23,0,0,0,6.39-31.44c1.94,5,3.87,10.27,5.75,15.67q2.72,7.8,5.06,15.27"/><path class="cls-9" d="M556.76,614q-14.61-9.67-29.24-19.33L591.64,602"/><path class="cls-9" d="M489.33,542.08a299.48,299.48,0,0,0,111.13,62.74"/><path class="cls-9" d="M523.94,589.19a16.28,16.28,0,0,0,3.84,1.25,5.38,5.38,0,0,0,3.86-.77,5.63,5.63,0,0,0,2,5.7,2.49,2.49,0,0,0-1,1.43,2.28,2.28,0,0,0,.19,1.62,2.21,2.21,0,0,0-2.13,0,2.16,2.16,0,0,0-1.1,1.77,1.31,1.31,0,0,0-1.56-.31,3.17,3.17,0,0,0-1.3,1.11,2.73,2.73,0,0,0-1.41-1.5,1.82,1.82,0,0,0-1.88.18,7.5,7.5,0,0,0-.67-2.68,3.37,3.37,0,0,0-1.88-1.88c.2,0,.26-.28.26-.48a2.09,2.09,0,0,0-.91-1.67,2.61,2.61,0,0,0,1.45-1.22,2.58,2.58,0,0,0,.19-1.89A1.8,1.8,0,0,0,523.94,589.19Z"/><path class="cls-9" d="M533.85,587.23a9.33,9.33,0,0,0,2.72,8.4,8.67,8.67,0,0,0-1.29,1.91,2.82,2.82,0,0,0-.26,2.17,4.19,4.19,0,0,0-2.82.93,4.06,4.06,0,0,0-1.51,2.5,2.79,2.79,0,0,0-2.52-.63,2.65,2.65,0,0,0-1.94,1.62,3.75,3.75,0,0,0-1.8-2.69,2.52,2.52,0,0,0-3.07.27,9.81,9.81,0,0,0-1.4-4.81c-.46-.76-1.05-1.61-1.91-1.75a2.07,2.07,0,0,0,.08-1.6,2,2,0,0,0-1.12-1.16,3.52,3.52,0,0,0,2.52-1.47,3.42,3.42,0,0,0,.55-2.81,1.55,1.55,0,0,0,1.48-.37,1.62,1.62,0,0,0,.42-1.5,11.6,11.6,0,0,0,5.94,1.93C530,588.24,532.05,588.27,533.85,587.23Z"/><path class="cls-9" d="M536.76,583.8a17.26,17.26,0,0,0,4,12.34,6,6,0,0,0-2.46,5.7,8.4,8.4,0,0,0-6.51,4.58,4.5,4.5,0,0,0-6,.4,5.17,5.17,0,0,0-2.44-2.36,5.23,5.23,0,0,0-3.42-.28,11.08,11.08,0,0,0-5.26-8.64,3.92,3.92,0,0,0-1.54-4.09,5,5,0,0,0,3.43-2,5.14,5.14,0,0,0,.88-3.92,2.57,2.57,0,0,0,1.75-.72,2.25,2.25,0,0,0,.61-1.64,16.76,16.76,0,0,0,8.35,2.15A27.39,27.39,0,0,0,536.76,583.8Z"/><path class="cls-9" d="M539.3,580.82a15.29,15.29,0,0,0,.78,8.4,30.53,30.53,0,0,0,4.22,7.37,7.22,7.22,0,0,0-2.16,7.71,27.85,27.85,0,0,0-5.25,2,8.8,8.8,0,0,0-3.86,3.68,6.72,6.72,0,0,0-4.22-.9,6.43,6.43,0,0,0-3.86,1.79,6.83,6.83,0,0,0-2.86-4,4.24,4.24,0,0,0-4.64,0,12.52,12.52,0,0,0-3.62-9.12,6.29,6.29,0,0,0-2.83-1.82,4.53,4.53,0,0,0-.37-4.55,2,2,0,0,0-.76-.71,12.82,12.82,0,0,0,4.37-2.1,4.13,4.13,0,0,0,1.45-4.25,3.32,3.32,0,0,0,2.14-1,2.6,2.6,0,0,0,.65-1.21,1.82,1.82,0,0,0-.24-1.35A26.25,26.25,0,0,0,539.3,580.82Z"/><path class="cls-9" d="M506.9,589.86a7,7,0,0,0,4.61-2.7,7.11,7.11,0,0,0,1.31-5.23,4.83,4.83,0,0,0,4.34-3.06,9.43,9.43,0,0,0,10.4-1.16,13.27,13.27,0,0,0,13.53,1.43,33.3,33.3,0,0,0,10.44,18.58,12,12,0,0,0-2.43,11,16,16,0,0,0-13.66,8.2,9.56,9.56,0,0,0-6.18-1.7,8.85,8.85,0,0,0-5.61,2.55,10.21,10.21,0,0,0-8.86-7.52,23,23,0,0,0-7.55-14.06,4.4,4.4,0,0,0,1.14-3A5.47,5.47,0,0,0,506.9,589.86Z"/><path class="cls-9" d="M527.56,582.76q0-5.84-.08-11.67"/><path class="cls-9" d="M527.53,570.81a15,15,0,0,1-14.26,2.66,3.46,3.46,0,0,1-1.89,3.45,5.65,5.65,0,0,1-4.07.29,8.33,8.33,0,0,1,.93,6.94,8,8,0,0,1-4.75,5,13.08,13.08,0,0,1,1.09,2.45,4.61,4.61,0,0,1,.08,2.65,2.8,2.8,0,0,1-1.73,1.89A26.75,26.75,0,0,1,512.75,613c1.18-.6,2.44-.13,3.62.48a13.89,13.89,0,0,1,6.21,6.59,14.6,14.6,0,0,1,13.88.14c1.53-2.81,4-4.59,6.87-6a47.31,47.31,0,0,1,9-3.15,16.53,16.53,0,0,1,6.13-12.85,28,28,0,0,1-10-14.88"/><path class="cls-9" d="M518.35,565a10.24,10.24,0,0,1-9.15,2.26,10,10,0,0,1-8.53,4.08,28.6,28.6,0,0,1,1.42,12.61c-.19,1.66-.72,3.55-2.24,4.21a6.57,6.57,0,0,1,1.75,4.13,6.44,6.44,0,0,1-1.27,4.27c2.31,1,3.5,3.68,4.52,6,2.1,4.78,4.22,9.79,3.95,15a12.64,12.64,0,0,1,7.67,1.83,12.51,12.51,0,0,1,5.1,5.95,16.11,16.11,0,0,1,16-2.06,11.08,11.08,0,0,1,4.12-4.68,27.15,27.15,0,0,1,5.68-2.9c2.69-1.08,5.44-2,8.22-2.85a15.47,15.47,0,0,1,8.5-13.85A19.78,19.78,0,0,1,557,588"/><path class="cls-10" d="M264.4,552.74h28.15v31.65H264.4V637H226.61V584.39H128.77l-1.09-24,97.68-159.71h39Zm-97.06,0h59.27V454.05l-2.8,5.2Zm297.87-15.26q0,51-18.28,76.85t-55.61,25.89q-36.7,0-55.29-25.24T317,540.24v-40.9q0-51,18.28-76.45T391,397.41q37.17,0,55.45,24.83t18.75,74.34Zm-37.8-44.15q0-33.27-8.71-48.77T391,429.06q-18.51,0-27.22,14.69t-9.17,45.85v53.56q0,33.11,8.86,49.34t27.84,16.23q18.21,0,26.91-15t9.18-47ZM626.5,552.74h28.15v31.65H626.5V637H588.7V584.39H490.87l-1.09-24,97.68-159.71h39Zm-97.06,0H588.7V454.05l-2.79,5.2Z"/><path class="cls-11" d="M263.14,526.07H291.3V556.4H263.14v50.4H225.35V556.4H127.51l-1.09-23,97.68-153h39Zm-97,0h59.26V431.5l-2.8,5ZM464,511.45q0,48.84-18.28,73.65t-55.6,24.81q-36.72,0-55.3-24.19t-19-71.62V474.9q0-48.84,18.27-73.26t55.76-24.42q37.19,0,55.46,23.8T464,472.26Zm-37.8-42.3q0-31.89-8.71-46.74t-27.69-14.86q-18.51,0-27.22,14.08t-9.17,43.94V516.9q0,31.73,8.86,47.28t27.85,15.56q18.19,0,26.9-14.39t9.18-45Zm199.09,56.92H653.4V556.4H625.24v50.4H587.45V556.4H489.61l-1.09-23,97.68-153h39Zm-97,0h59.26V431.5l-2.8,5Z"/><path class="cls-12" d="M479,132.36q-1.44-51-2.87-102l25.39,92m56.23-60.65c-7.71-4.41-16.71-6.41-25.63-7.9-2.23-.45-4.48-.93-6.72-1.51a62.93,62.93,0,0,1-6.72-2.13c-3.2-1-6.4-2-9.56-3.2a89.45,89.45,0,0,1-9.32-4.11l-6.35-3.3-17.32-9.16,21.82,27.21c1.66,2,3.34,4.13,5,6.22C512,75.22,521,86.22,529.74,97.22M408.36.38C429,12.22,450,23.22,472.71,29.66c2.2.62,4.43,1.24,6.72,1.93L499.75,37c2.48.57,4.92,1.17,7.42,1.65a64.23,64.23,0,0,0,10.08,1.43,69.62,69.62,0,0,0,8.17-.07C543,39.22,559,33.22,574,22.22c2-1,5,0,7.84-.38M454,97.46l22.14-67.14-3,2.07c-1.9,1.26-4.55,3-7.59,5.06C455,45.22,445,50.22,435.37,58.11m29-29.24A10.44,10.44,0,0,1,469,35.18,8.16,8.16,0,0,1,473,38.5a5,5,0,0,1,3.24,2.07l-.09-.15c.36-.53,1.79,0,2.31.63a1.89,1.89,0,0,1,1.72-1.19,3.65,3.65,0,0,1,2.52.84,2,2,0,0,1,.43-2.29,2.68,2.68,0,0,1,2.58-.17,1.05,1.05,0,0,1,.33-1.81m-29.28-12c7.2,3.78,5.2,13.78,12.28,14.94a13.08,13.08,0,0,1,2.64,4.31,2.35,2.35,0,0,1,2.65-1,2.69,2.69,0,0,1,1.91,2.36c.11-.83,1.45-1.09,2.23-.8a3.66,3.66,0,0,1,1.69,1.78A4.4,4.4,0,0,1,483,43.51a4.45,4.45,0,0,1,3.74.48,4.61,4.61,0,0,1,2-4,4.3,4.3,0,0,1,4.32-.44,3.13,3.13,0,0,1,.77-4.19m-45.1-14C455,26.22,460,33.22,460,41.54a12.88,12.88,0,0,1,5.77,2.69,12.19,12.19,0,0,1,3.75,4.9c.8-1.2,2.57-1,3.91-.48a9.14,9.14,0,0,1,3.32,2.71l-.24-.22c.22-1,1.54-1.14,2.56-1a6.28,6.28,0,0,1,2.76,1.33,5.16,5.16,0,0,1,3.88-3.63A5.45,5.45,0,0,1,491,49.38c-.21-2.05,1.22-4,2.86-5.26a6.23,6.23,0,0,1,5.88-.87c-.71-2,.29-4,1.94-6.1M433.59,14.44C443,22.22,452,32.22,454,45.22c0,1,5,2,7.56,4.19a21.41,21.41,0,0,1,6,6.65c3-1.62,7-.51,9.34,2A3.12,3.12,0,0,1,480,56.21a9.24,9.24,0,0,1,3.72,1.16A7.6,7.6,0,0,1,489,53.19a7.36,7.36,0,0,1,6.34,1.94,10.4,10.4,0,0,1,3.7-6.5C501,47.22,504,47.22,506,46.22c-1-2,0-5,2.5-7.21M415.18,4.62C429,16.22,443,29.22,447,50.22c1,2,8,1,10,4.9,3,2.85,5.27,6.31,7.8,9.51a9.3,9.3,0,0,1,6.5-1.37,9.68,9.68,0,0,1,5.78,3.5,5.76,5.76,0,0,1,3.35-3.62,5.66,5.66,0,0,1,4.86.47c1.27-2.6,4.12-3.81,7-3.92s5.71.85,8.47,1.77c.23-2.24.23-5.24,1.23-6.24,7-5,11-8,13.52-15.52M409.33,1.3C425,14.22,441,31.22,443,54.22c0,2,7,3,10.38,7.83A39.1,39.1,0,0,1,462,73.44a8.23,8.23,0,0,1,7.77-1.55,24.07,24.07,0,0,1,7.16,4,6.86,6.86,0,0,1,4.51-4.82,6.5,6.5,0,0,1,6.22,1.58c.8-3.54,4.37-5.73,8-6.13s7.2.68,10.71,1.73c.35-4.53,3-8,6.61-10.68a30.94,30.94,0,0,1,5.9-3.31c9.19-.07,2.19-9.07,8.49-14.22M409.72.87C424,16.22,447,35.22,435.93,57.84a42.22,42.22,0,0,1,23.91,23.67,4.45,4.45,0,0,1,3.24-1.11,10.91,10.91,0,0,1,3.62.6,29.5,29.5,0,0,1,10.71,6,5.27,5.27,0,0,1,3.5-3.56,9.08,9.08,0,0,1,5.24-.24,27.11,27.11,0,0,1,5,1.82c.91-4.26,5-7.11,9.26-8.08a23.07,23.07,0,0,1,6.48-.44c2.12.74,5.12,1.74,5.12.74a39.09,39.09,0,0,1,4.62-8.2,35.38,35.38,0,0,1,6.14-6.47A78.47,78.47,0,0,1,530.6,58,30.48,30.48,0,0,1,539,55.22c-2-7,1-14,5.58-18.16M436.52,57.62c2.24,2.28,4.35,4.62,6.33,7.07a77.15,77.15,0,0,1,13.4,24,24.83,24.83,0,0,1,21.58,6.75A4.53,4.53,0,0,1,481,92.92a9.87,9.87,0,0,1,4.26-.17,21.69,21.69,0,0,1,8.61,3.18,19.26,19.26,0,0,1,18.07-12.45c3.08.74,5.08.74,8.08,1.74a26.12,26.12,0,0,1,5.59-11c1.74-1.83,3.54-3.53,5.36-5.15s3.66-3.18,5.45-4.74C545,58.22,550,48.22,554,38.22c1-3,5-4,5.86-7.07M456.45,89.68a42.22,42.22,0,0,1,21.62,12.9c2.32-1.1,4.79-.77,7.23,0a38.49,38.49,0,0,1,12.86,7.23C499.32,104,503,99,507.75,95.39a25.07,25.07,0,0,1,8-4A26.73,26.73,0,0,1,525,90.22a18.25,18.25,0,0,1,1.16-6.45,21.42,21.42,0,0,1,3.1-5.51,46,46,0,0,1,5.41-5.4c1.9-1.63,3.88-3.13,5.86-4.63,15.47-10,23.47-27,28.17-43.52"/></g></g></svg>