<svg xmlns="http://www.w3.org/2000/svg" xmlns:xlink="http://www.w3.org/1999/xlink" viewBox="0 0 857.75 612.87"><defs><style>.cls-1{fill:#bbea78;}.cls-2,.cls-3{fill:none;stroke-miterlimit:10;stroke-width:25px;}.cls-2{stroke:url(#linear-gradient);}.cls-3{stroke:#7c959b;}.cls-4{fill:#e87272;}.cls-5{fill:#7c959b;}.cls-6{fill:#e2e2e2;}</style><linearGradient id="linear-gradient" x1="428.88" y1="549.41" x2="428.88" gradientUnits="userSpaceOnUse"><stop offset="0" stop-color="#fff" stop-opacity="0"/><stop offset="1" stop-color="#a1bbc4"/></linearGradient></defs><title>500</title><g id="Layer_2" data-name="Layer 2"><g id="Layer_1-2" data-name="Layer 1"><g id="_500" data-name="500"><path class="cls-1" d="M164.14,497.3,176.44,383H298.25v32.71H207.91l-6.23,54.2q15.72-9,35.51-9,32.4,0,50.39,20.72t18,55.76q0,34.57-19.94,55.06T231,612.87q-31.15,0-51.64-17.68t-22.19-46.65h36.6q2.18,16.51,11.84,25.31t25.23,8.81q17.44,0,27.18-12.47t9.74-34q0-20.72-10.75-32.79t-29.59-12.07a49.42,49.42,0,0,0-17.45,2.72q-7.17,2.73-15.58,10.67Zm319,17q0,48.9-18.31,73.75t-55.68,24.84q-36.76,0-55.37-24.22T334.7,516.92V477.67q0-48.9,18.3-73.36t55.84-24.46q37.23,0,55.53,23.83T483.14,475Zm-37.85-42.37q0-31.93-8.73-46.81t-27.72-14.87q-18.54,0-27.26,14.09t-9.19,44v51.4q0,31.77,8.88,47.35t27.88,15.58q18.23,0,27-14.41t9.19-45.1Zm219.15,42.37q0,48.9-18.3,73.75t-55.68,24.84q-36.76,0-55.38-24.22T516,516.92V477.67q0-48.9,18.31-73.36t55.84-24.46q37.22,0,55.52,23.83T664.44,475Zm-37.85-42.37q0-31.93-8.72-46.81t-27.72-14.87q-18.54,0-27.26,14.09t-9.19,44v51.4q0,31.77,8.87,47.35t27.89,15.58q18.22,0,26.94-14.41t9.19-45.1Z"/><g id="no-results"><polyline class="cls-2" points="12.5 548.65 12.5 12.5 845.25 12.5 845.25 549.41"/><rect class="cls-3" x="12.5" y="12.5" width="832.75" height="83.58"/><circle class="cls-4" cx="792.04" cy="54.29" r="9.58"/><circle class="cls-5" cx="757.22" cy="54.29" r="9.58"/><circle class="cls-6" cx="722.39" cy="54.29" r="9.58"/></g><g id="face"><polygon class="cls-6" points="399.67 215 388.95 225.72 372.05 208.82 355.16 225.72 344.44 215 361.34 198.1 344.44 181.21 355.16 170.49 372.05 187.39 388.95 170.49 399.67 181.21 382.77 198.1 399.67 215"/><polygon class="cls-6" points="514.25 215.09 503.54 225.8 486.64 208.9 469.74 225.8 459.03 215.09 475.92 198.19 459.03 181.29 469.74 170.58 486.64 187.47 503.54 170.58 514.25 181.29 497.35 198.19 514.25 215.09"/><path class="cls-6" d="M411.21,267.19H363V249.83H493v38.22q0,16.74-11.36,26.59t-30,9.84q-19.14,0-29.78-9.64t-10.64-27Zm18.22,0v20.86q0,9.26,5.67,14.13t16.39,4.88q10.54,0,16.84-4.94t6.48-13.59V267.19Z"/></g></g></g></g></svg>