<svg xmlns="http://www.w3.org/2000/svg" viewBox="0 0 49.44 39.08"><defs><style>.cls-1{fill:#bfd679;}</style></defs><title>Asset 1</title><g id="Layer_2" data-name="Layer 2"><g id="Layer_1-2" data-name="Layer 1"><path class="cls-1" d="M37,39.07a11.94,11.94,0,0,1-11.46-7.54c-1-2.43-5.53-13.14-8.57-20.37L7.81,32.84H19.59a3.12,3.12,0,1,1,0,6.24H3.12A3.13,3.13,0,0,1,.24,34.75L14.07,1.91A3.11,3.11,0,0,1,16.94,0h0a3.12,3.12,0,0,1,2.88,1.91S29.67,25.35,31.26,29.1A5.74,5.74,0,0,0,37,32.84,6.24,6.24,0,0,0,38,20.45a3.12,3.12,0,0,1-2.34-4.28l4.18-9.93H28.1A3.12,3.12,0,0,1,28.1,0H44.58a3.11,3.11,0,0,1,2.87,4.33l-4.71,11.2A12.48,12.48,0,0,1,37,39.07Z"/></g></g></svg>