<svg xmlns="http://www.w3.org/2000/svg" xmlns:xlink="http://www.w3.org/1999/xlink" viewBox="0 0 402.58 319.71"><defs><style>.cls-1{fill:none;stroke-miterlimit:10;stroke-width:0.75px;opacity:0.7;isolation:isolate;stroke:url(#linear-gradient);}.cls-2{fill:url(#linear-gradient-2);}.cls-3{fill:url(#linear-gradient-3);}</style><linearGradient id="linear-gradient" x1="3.36" y1="159.82" x2="397" y2="159.82" gradientUnits="userSpaceOnUse"><stop offset="0" stop-color="#678d9b"/><stop offset="1" stop-color="#b3d782"/></linearGradient><linearGradient id="linear-gradient-2" x1="0.77" y1="162.23" x2="399.5" y2="162.23" gradientTransform="matrix(1, 0, 0, -1, 0, 322.08)" xlink:href="#linear-gradient"/><linearGradient id="linear-gradient-3" x1="404.08" y1="279.29" x2="7.19" y2="11.59" gradientTransform="matrix(1, 0, 0, -1, 0, 322.08)" gradientUnits="userSpaceOnUse"><stop offset="0" stop-color="#b3d782"/><stop offset="1" stop-color="#678d9b"/></linearGradient></defs><title>a3_outline_graph</title><g id="Layer_2" data-name="Layer 2"><g id="Layer_1-2" data-name="Layer 1"><g id="a3_outline_graph"><g id="Layer_1-2-2" data-name="Layer 1-2"><path class="cls-1" d="M70.71,125.33,153.54,18m26.53,286.26-77.93-37m74.26,10.93L51.13,307.91M88,278.42l34.3,36.43m-57.45.85,77.45-42.5M87.93,207.51,3.64,287.21m0,0,118.61,27.57M88,278.34,14.79,262.92m50,52.71L30.94,230.78m-.65-8.11L70.71,251.5m71.54,21.61-40.11-5.89M74.86,208.65,24.6,239.52m44-86.81,19.44,54.8m40.27-94.59L95.87,172.7M110,157.89,80,113.11m39.35,24L67.86,153.9m32.8-90.73,29,50m-30.34-44L95,86.05M70.71,125.33,95.87,172.7M110,157.89,30.29,222.74M65.8,264.79,88,278.32M74.86,208.65,45.05,186.79m89.37-88.33L121.45,13M108.09,39.53l58.5,14.26M128.74,5.89,153.47,18m-1,65L143.63,3.65M108.09,39.53l88.3,61.05m-44.11,19.94,54.95,10m-51.21-3,40.37-26.94m-29.8-46.79L152.52,82.94m33.36,110.45,10.37-92.86m-40.23,27L153.78,18m82.79,179.57-50.69-4.16m54.19,28.45-132-182.31m109.55,136.9-10.41-45.88m0,0-3.06,115.78M240,221.94l13.55,20.59m12.64,17.64-6.85-6.87m-19.44-31.36,7.29,76.2m24.29,12.63-57.57-43.55m33.57,30.85-43.28-51.74m35.9-24.3-3.26-25.77m29.45,63.91,29.15,11.3m0,44.21L361.94,291m-9-58.08-8.33,68.89m39.2-44.28-88.35,14m31.58-14L361.94,291M344.6,301.78l-79.51-41.85m30.39,11.44v44.21M272,310.16l81.06-77.36m-86.94,27.13,29.15,55.65M247.4,298.09l12-45.18m0,0-5.84-10.38m-39.64,24.69,45.52-14.34M361.94,291l-9-58.08m42.46-25.43L352.93,217m43.72,8.4L383.8,257.5m0,0-3,6.75M352.9,232.92l30.73-66m-35.58,39.31,48.58,19.09M383.8,257.5l-30.87-24.61m7.82,58.81,34.64-84.24m-47.34-1.19,8.62-61.43m14,6.24,13,15.86m-59,0,72,58.3M289.77,150.79l35,16m13.38,16.06-39.57-67.29m26.72,51.74,58.3-.51m11.74,40.52L312.17,80.41M357.42,95,316.76,83m44-8.58-36.12,92.53m-35-16L374.4,33.48m9.26-12.78L312.17,80.41M316.76,83l9.35-31M302.94,4.87l76.42,8.72M348.05,206.27l-20.12-198M298.44,115.71l13.73-35.3m48.58-7.65,23-52.06M327.93,8.29l-114,39.43m9.45-41.81L326.11,52m-54.68-1.49L223.33,5.91m13.53,0-23,41.81m169.78-27L223.33,5.91M326.11,52l-54.68-1.49m-57.55-2.74,8.36-41.81m49.19,44.58-57.55-2.77M305.32,4.87,270.89,51.29M374.4,33.48,213.88,47.72M67.86,153.9,24.6,239.52m-21,47.69L25.46,311m96.79,3.76,57.82-10.54m-3.67-25.9L179.75,303M88,207.51l31.36-70.33M67.86,153.9l2.85-28.57M121.45,13,100.66,63.17M153.54,18l42.85,82.6m8,144.46-18.53-51.65m196.47,71.88L361.94,291m21.72-124,11.73,40.52m-42.46,25.43-4.86-26.72m22.62-55.09-72.13-35.49m46.16,7.89,51.93,101.76m-156.58-3.3-35.9,24.29m-153,61.58-25.67,3.11M95.05,86,80,113.16M152.52,83l54.71,47.56m32.84,91.39-54.19-28.55m103.19-60.46,54.24-17.22M217.64,177.52l-61.57-50m9.11,141.08-43,46.16M95,86.05l34.64,27.11m56.24,80.23L156,127.52"/><path class="cls-2" d="M142.25,276.07a2.87,2.87,0,1,1,2.84-2.89v0a2.85,2.85,0,0,1-2.82,2.87ZM90.8,278.42a2.87,2.87,0,1,0-2.89,2.84h0A2.85,2.85,0,0,0,90.8,278.42Zm77.34-9.72a2.87,2.87,0,1,0-3,2.77,2.87,2.87,0,0,0,3-2.77v0Zm11.1,9.64a2.87,2.87,0,1,0-2.89,2.84h.05a2.83,2.83,0,0,0,2.84-2.84v0ZM125.1,314.78a2.87,2.87,0,1,0-2.89,2.84h0A2.85,2.85,0,0,0,125.1,314.78Zm-56.46-49a2.84,2.84,0,1,0-2.84,2.84h0A2.84,2.84,0,0,0,68.64,265.76ZM54.07,307.91a2.8,2.8,0,1,1-.1,0Zm-25.77,4a2.84,2.84,0,1,0-2.84,2.86,2.83,2.83,0,0,0,2.84-2.86Zm-.86-72.35a2.84,2.84,0,1,0-2.84,2.87,2.82,2.82,0,0,0,2.84-2.87ZM6.5,287.21a2.87,2.87,0,1,0-2.86,2.87,2.87,2.87,0,0,0,2.86-2.87Zm71.23-78.56a2.87,2.87,0,1,0-2.89,2.84h0A2.88,2.88,0,0,0,77.73,208.65ZM55.6,177.51a2.85,2.85,0,1,0-2.85,2.84h0A2.85,2.85,0,0,0,55.6,177.51ZM71.51,153.9a2.87,2.87,0,1,0-2.89,2.84h0a2.85,2.85,0,0,0,2.87-2.82ZM90.8,207.51a2.87,2.87,0,1,0-2.89,2.84h0a2.85,2.85,0,0,0,2.85-2.84ZM73.55,125.33a2.85,2.85,0,1,0-2.84,2.84h0A2.84,2.84,0,0,0,73.55,125.33Zm39.3,32.56a2.84,2.84,0,1,0-2.84,2.84h0a2.84,2.84,0,0,0,2.84-2.84v0ZM137.24,99.6a2.9,2.9,0,1,0,0,.06ZM103,63.48a2.51,2.51,0,1,0,0,.06Zm21.14-50a2.9,2.9,0,1,0,0,.06ZM169.4,54.25A2.82,2.82,0,0,0,167.06,51H167a2.85,2.85,0,0,0-.87,5.64h0A2.89,2.89,0,0,0,169.4,54.25ZM156.6,18.42a2.85,2.85,0,0,0-2.37-3.25h-.06a2.89,2.89,0,0,0-3.25,2.43,2.81,2.81,0,0,0,2.35,3.21l.08,0a2.85,2.85,0,0,0,3.25-2.37Zm-1.14,64.76a2.9,2.9,0,1,0,0,.06Zm3.45,43.73a2,2,0,1,1-.12,0v0Zm40.28-26.65a2.85,2.85,0,1,0-2.07,3.47,2.85,2.85,0,0,0,2.07-3.47Zm21.22,76.58a2.86,2.86,0,1,0-2.12,3.45h0a2.85,2.85,0,0,0,2.1-3.43ZM188.64,192.7a2.84,2.84,0,1,0-2.09,3.45A2.85,2.85,0,0,0,188.64,192.7Zm27.77,73.91a2.84,2.84,0,1,0-2.07,3.45,2.84,2.84,0,0,0,2.07-3.45Zm39.87-24.77a2.84,2.84,0,1,0-2.09,3.45,2.85,2.85,0,0,0,2.09-3.45Zm-13.54-20.58a2.84,2.84,0,1,0-2.09,3.45,2.87,2.87,0,0,0,2.28-3.36s0-.06,0-.09Zm7.29,76.2a2.85,2.85,0,1,0-5.54,1.36h0a2.85,2.85,0,0,0,5.54-1.36Zm18.8-38a2.84,2.84,0,1,0-5.52,1.36,2.84,2.84,0,0,0,5.52-1.36Zm5.61,50.09a2.82,2.82,0,0,0-3.4-2.08l-.05,0a2.84,2.84,0,1,0,3.45,2.06Zm23.49-38.87a2,2,0,1,0,.2.11v0Zm66.59,19.44a2,2,0,1,0,.19.14ZM386.38,258a2.87,2.87,0,1,0-3.37,2.26h0a2.85,2.85,0,0,0,3.56-1.92,1.33,1.33,0,0,0,.05-.19Zm-30.66-24.53a2.85,2.85,0,1,0-3.34,2.24A2.84,2.84,0,0,0,355.72,233.43Zm43.73-7.53a2.85,2.85,0,1,0-3.33,2.26,2.85,2.85,0,0,0,3.33-2.26Zm-48.13-19.1a2.86,2.86,0,1,0-3.36,2.26h0A2.86,2.86,0,0,0,351.32,206.8Zm22.35-55.18a2.84,2.84,0,1,0-5.58-1.07h0a2.84,2.84,0,1,0,5.58,1.07ZM327.45,168a2.87,2.87,0,1,0-3.37,2.25h0A2.89,2.89,0,0,0,327.45,168Zm20.09-43.85a2.87,2.87,0,0,0-5.63-1.11,2.85,2.85,0,0,0,2.26,3.36h0A2.88,2.88,0,0,0,347.54,124.14Zm-55.1,9a2.87,2.87,0,1,0-3.37,2.25h0A2.89,2.89,0,0,0,292.44,133.1ZM315,81a2.84,2.84,0,1,0-3.33,2.26A2.84,2.84,0,0,0,315,81Zm48.58-6a2.84,2.84,0,1,0-3.32,2.26A2.81,2.81,0,0,0,363.53,75ZM377.22,34a2.87,2.87,0,1,0-3.37,2.25h0A2.88,2.88,0,0,0,377.22,34Zm9.35-12.34a2.87,2.87,0,1,0-3.37,2.25h0a2.87,2.87,0,0,0,3.35-2.24ZM274.22,51a2.86,2.86,0,1,0-3.35,2.28A2.87,2.87,0,0,0,274.22,51Zm54.69,1.41a2.84,2.84,0,0,0-2.26-3.32h0a2.84,2.84,0,1,0,2.26,3.4ZM226.13,6.4a2.85,2.85,0,1,0-3.33,2.26,2.82,2.82,0,0,0,3.32-2.2h0Zm81-1a2.84,2.84,0,1,0-3.32,2.26,2.84,2.84,0,0,0,3.32-2.26ZM220.22,156.57a1.3,1.3,0,0,0-1-1.55,1.31,1.31,0,1,0-.54,2.56h0a1.3,1.3,0,0,0,1.53-1Zm-11.71-25.75a1.31,1.31,0,1,0-1.55,1h0A1.31,1.31,0,0,0,208.51,130.82Zm-53.68-9.72a1.3,1.3,0,1,0-2.55-.48h0a1.29,1.29,0,0,0,1,1.52h0a1.29,1.29,0,0,0,1.51-1s0-.08,0-.13ZM133.35,93.82a1.31,1.31,0,1,0-1.53,1.05A1.33,1.33,0,0,0,133.35,93.82Zm-2.42,19.58a1.34,1.34,0,0,0-1.05-1.53,1.29,1.29,0,1,0,1.05,1.53ZM109.31,39.77a1.31,1.31,0,1,0-2.57-.53,1.3,1.3,0,0,0,1,1.55h0a1.28,1.28,0,0,0,1.52-1ZM144.92,3.89a1.31,1.31,0,0,0-2.58-.48,1.32,1.32,0,0,0,1,1.58,1.3,1.3,0,0,0,1.58-1ZM131.36,6.32a1.25,1.25,0,0,0-1-1.45,1.31,1.31,0,1,0,1,1.55v-.1Zm-31,64.4a1.3,1.3,0,0,0-1-1.55,1.31,1.31,0,1,0-.54,2.57h0A1.3,1.3,0,0,0,100.34,70.72ZM81.25,113.4a1.29,1.29,0,0,0-1-1.52h0a1.3,1.3,0,0,0-.48,2.55h0a1.28,1.28,0,0,0,1.52-1Zm15-27.11a1.28,1.28,0,0,0-1.18-1.38,1.29,1.29,0,0,0-.35,2.55,1.29,1.29,0,0,0,1.51-1A.77.77,0,0,0,96.26,86.29Zm24.54,51a1.29,1.29,0,1,0-1.53,1,1.31,1.31,0,0,0,1.53-.92ZM97.16,172.94a1.31,1.31,0,0,0-2.57-.49,1.35,1.35,0,0,0,1,1.54,1.29,1.29,0,0,0,1.52-1ZM46.32,187.05a1.3,1.3,0,0,0-2.55-.48h0a1.3,1.3,0,1,0,2.55.48Zm25.94,64.79a1.29,1.29,0,0,0-1.05-1.49,1.31,1.31,0,0,0-1.49,1.06,1.29,1.29,0,0,0,1,1.47,1.31,1.31,0,0,0,1.53-1h0ZM32.08,223.25a1.3,1.3,0,0,0-1.78-.52h0a1.31,1.31,0,1,0,1.79.51Zm-.51,7a1.31,1.31,0,1,0-.45,1.59A1.31,1.31,0,0,0,31.57,230.22ZM15,264.23a1.29,1.29,0,0,0,1-1.51v0a1.24,1.24,0,1,0-2.43.48,1.29,1.29,0,0,0,1.48,1Zm87.45,4.4a1.3,1.3,0,0,0,1-1.53h0a1.33,1.33,0,0,0-1.55-1h0a1.3,1.3,0,0,0-1,1.55,1.28,1.28,0,0,0,1.53.95ZM65.07,316.89a1.28,1.28,0,0,0,1-1.52h0a1.29,1.29,0,0,0-1.51-1h0a1.33,1.33,0,0,0-1,1.55h0a1.29,1.29,0,0,0,1.52,1ZM180.34,305.5a1.32,1.32,0,0,0,1-1.56,1.31,1.31,0,0,0-2.56.55h0A1.31,1.31,0,0,0,180.34,305.5Zm57.52-107.71a1.31,1.31,0,0,0-2.58-.49,1.32,1.32,0,0,0,1,1.54h0A1.32,1.32,0,0,0,237.86,197.79Zm-32.43,48.78a1.31,1.31,0,1,0-1.55,1h0a1.28,1.28,0,0,0,1.52-1Zm55.26,7a1.31,1.31,0,1,0-1.55,1h0A1.31,1.31,0,0,0,260.69,253.56Zm36.08,61.9a1.31,1.31,0,1,0-1.08,1.51h0a1.29,1.29,0,0,0,1.07-1.47Zm31.57-58.3a1.3,1.3,0,0,0-1.53-1,1.27,1.27,0,0,0-1,1.48v0a1.29,1.29,0,0,0,1.49,1.05h0a1.31,1.31,0,0,0,1.14-1.41Zm17.47,44.28a1.31,1.31,0,0,0-1.53-1,1.29,1.29,0,0,0-1,1.49v0a1.27,1.27,0,0,0,1.48,1h0a1.31,1.31,0,0,0,1.14-1.41Zm36.44-36.26a1.29,1.29,0,0,0-1.49-1.05h0a1.32,1.32,0,0,0-1.07,1.51,1.37,1.37,0,0,0,1.53,1.07,1.35,1.35,0,0,0,1.15-1.44Zm14.33-58a1.27,1.27,0,0,0-1.5-1,1.29,1.29,0,1,0,1.6,1.12Zm-42.46,9.5a1.31,1.31,0,1,0-1.08,1.51h0a1.32,1.32,0,0,0,1.17-1.41Zm-14.92-34a1.28,1.28,0,0,0-1.47-1.07h0a1.3,1.3,0,0,0-1.05,1.49v0a1.29,1.29,0,1,0,2.55-.44Zm45.65-16.08a1.29,1.29,0,0,0-1.49-1.05h0a1.31,1.31,0,0,0-1.07,1.5,1.36,1.36,0,0,0,1.53,1.07,1.3,1.3,0,0,0,1.14-1.38ZM356.09,146a1.28,1.28,0,0,0,1.73-.54v0a1.35,1.35,0,1,0-2.42-1.19,1.31,1.31,0,0,0,.65,1.74Zm-67,6.05a1.35,1.35,0,1,0-.62-1.81,1.34,1.34,0,0,0,.62,1.81Zm8.81-35.17a1.29,1.29,0,1,0-.58-1.75,1.29,1.29,0,0,0,.58,1.75h0Zm45.94,0a1.32,1.32,0,0,0,.68-1.73,1.3,1.3,0,0,0-1.69-.69h0a1.32,1.32,0,1,0,1,2.43Zm14-20.77a1.32,1.32,0,1,0-1-2.43,1.32,1.32,0,0,0,1,2.43Zm-40.52-12a1.31,1.31,0,1,0-1.72-.68h0a1.32,1.32,0,0,0,1.7.73Zm10.1-30v0M379.87,14.9a1.32,1.32,0,0,0,.68-1.73,1.29,1.29,0,0,0-1.69-.68h0a1.31,1.31,0,0,0-.71,1.7A1.34,1.34,0,0,0,379.87,14.9ZM328.44,9.51a1.32,1.32,0,1,0-1.75-.71A1.36,1.36,0,0,0,328.44,9.51ZM237.37,7.08a1.32,1.32,0,1,0-1-2.43h0a1.32,1.32,0,0,0,1,2.43Zm-23,41.83a1.32,1.32,0,1,0-1-2.43,1.32,1.32,0,0,0,1,2.43Z"/><path class="cls-3" d="M360,3.65a24.93,24.93,0,0,1,23,34.59l-37.7,89.57A99.74,99.74,0,0,1,299.15,316c-42,0-75.31-21.86-91.61-60.26C199.31,236.29,163.31,150.69,139,93L66.12,266.32h94.2a24.95,24.95,0,0,1,0,49.87H28.58a25,25,0,0,1-23-34.74L116.11,18.91a24.89,24.89,0,0,1,23-15.26h0a24.92,24.92,0,0,1,23,15.28s78.78,187.36,91.46,217.39c8.38,19.8,23.75,29.83,45.69,29.83a49.85,49.85,0,0,0,8.55-99,25,25,0,0,1-20.29-28.86,25.29,25.29,0,0,1,1.59-5.39l33.42-79.48H228.34a24.95,24.95,0,0,1,0-49.8H360.07m0-3.64H228.34a28.59,28.59,0,0,0,0,57.16H317l-31.31,74.35a28.53,28.53,0,0,0,21.47,39.23,46.15,46.15,0,0,1-7.94,91.75c-20.62,0-34.47-9-42.34-27.59C244.34,205.22,166.22,19.44,165.42,17.5a28.56,28.56,0,0,0-52.66,0L2.23,280a28.61,28.61,0,0,0,26.35,39.67H160.32a28.59,28.59,0,0,0,0-57.16H71.58l67.48-160.32c22.84,54.31,57.19,136,65.2,154.91,16.79,39.71,51.4,62.47,95,62.47a103.39,103.39,0,0,0,50.72-193.46l36.44-86.52A28.56,28.56,0,0,0,360,0Z"/></g></g></g></g></svg>