<svg xmlns="http://www.w3.org/2000/svg" xmlns:xlink="http://www.w3.org/1999/xlink" viewBox="0 0 165.72 131.64"><defs><style>.cls-1{fill:none;stroke-miterlimit:10;stroke-width:0.25px;opacity:0.7;stroke:url(#linear-gradient);}.cls-2{fill:url(#linear-gradient-2);}.cls-3{fill:url(#New_Gradient_Swatch_1);}</style><linearGradient id="linear-gradient" x1="1.4" y1="65.86" x2="163.41" y2="65.86" gradientUnits="userSpaceOnUse"><stop offset="0" stop-color="#678d9b"/><stop offset="1" stop-color="#b3d782"/></linearGradient><linearGradient id="linear-gradient-2" x1="0.33" y1="66.25" x2="164.47" y2="66.25" xlink:href="#linear-gradient"/><linearGradient id="New_Gradient_Swatch_1" x1="166.34" y1="17.61" x2="2.96" y2="127.81" gradientUnits="userSpaceOnUse"><stop offset="0" stop-color="#b3d782"/><stop offset="1" stop-color="#678d9b"/></linearGradient></defs><title>a3_outline_graph</title><g id="Layer_2" data-name="Layer 2"><g id="Layer_1-2" data-name="Layer 1"><path class="cls-1" d="M29.11,51.59,63.21,7.4M74.13,125.24,42.05,110m30.58,1.16L21.05,126.75m15.16-12.14,14.12,15m-23.65.35L56.2,110.57m-20-25.15L1.5,118.23m0,0,48.83,11.35m-14.12-15L6.09,108.23m20.59,21.7L12.74,95m-.27-3.34,16.64,11.87m27.09,7L42.05,110M30.82,85.89,10.13,98.6M28.26,62.86l8,22.56M52.84,46.48,39.47,71.09m7-5.53-13.54-19m16.2,9.89L27.94,63.35M41.44,26,53.37,46.58M40.88,28.48l-1.77,6.94m-10,16.17,10.36,19.5m7-5.53-34,26.13M27.09,109l9.12,5.57M30.82,85.89l-12.27-9M55.34,40.53,50,5.35M44.5,16.27l24.08,5.87M53,2.42l10.18,5m-.42,26.76L59.13,1.5M44.5,16.27,80.85,41.4M62.69,49.61l22.62,4.13M64.23,52.49,80.85,41.4M68.58,22.14l-5.79,12m11,47.77,7-40.53M64.23,52.49,63.31,7.4M73.8,81.93l23.59-.61m1.44,10L44.5,16.27M92.25,68.93,85.31,53.74m0,0L84.05,101.4m22.74-.81-8-9.23m10.78,15.74-2.82-2.83m-8-12.91,3,31.37m10,5.2L88.05,110m13.82,12.7L84.05,101.4m14.78-10L97.49,80.79m12.12,26.31,12,4.65m0,18.2L149,119.78m-3.71-23.91-3.43,28.36M158,106l-36.37,5.76m13-5.76L149,119.78m-7.14,4.45L109.13,107m12.51,4.71,0,18.2m-9.67-2.23,33.37-31.85M109.55,107l12,22.91m-14.7-26.2-5,19m4.92-22.14v3.54M88.05,110l18.74-5.9M149,119.78l-3.71-23.91M162.77,85.4l-17.48,3.91m18,3.46L158,106m0,0-1.23,2.78m-11.49-12.9,12.65-27.15M143.28,84.91l20,7.86M158,106,145.29,95.87m3.22,24.21L162.77,85.4m-19.49-.49,3.55-25.29m8.41,0,2.7,9.1m-24.3,0,29.65,24m-44-30.65,14.4,6.6m5.51,6.61-16.29-27.7m11,21.3,24-.21m4.83,16.68L128.51,33.1m18.63,6L130.4,34.16m18.11-3.53L133.64,68.72m-14.4-6.6,34.89-48.34m3.81-5.26L128.51,33.1m1.89,1.06,1.14-12.72M124.71,2l31.46,3.59M143.28,84.91,135,3.41M122.86,47.63l5.65-14.53m20-3.15,9.47-21.43M135,3.41,88.05,19.64M91.94,2.43l39.6,19m-19.8-.66L91.94,2.43m5.57,0L88.05,19.64M157.94,8.52l-66-6.09m39.6,19-19.8-.66M88.05,19.64,91.49,2.43m20.25,18.35L88.05,19.64M125.69,2,111.52,21.11m42.61-7.33L88.05,19.64M27.94,63.35,10.13,98.6M1.5,118.23l8.63,11.88m40.2-.53,23.8-4.34m-1.5-14L74,124.71M36.21,85.42,49.12,56.47M27.94,63.35l1.17-11.76M50,5.35,41.44,26M63.21,7.4l17.64,34m3.3,59.47L64.23,52.49M157.4,109.2,149,119.78m8.94-51.06,4.83,16.68M145.29,95.87l-2-11m12-25.29-32.38-12m19,3.25,21.38,41.89M98.83,91.36l-14.78,10m-63,25.35-10.92,3.36m29-94.69L32.92,46.58M62.79,34.16,85.31,53.74M98.83,91.36l-25-9.43M119,54.72l22.33-7.09M92.25,69.38l-28-16.89M68,110.57l-17.71,19M39.11,35.42,53.37,46.58"/><path class="cls-2" d="M56.2,111.75a1.18,1.18,0,1,1,1.17-1.18A1.17,1.17,0,0,1,56.2,111.75Zm-18.82,2.86a1.18,1.18,0,1,0-1.17,1.17A1.17,1.17,0,0,0,37.38,114.61Zm31.84-4A1.18,1.18,0,1,0,68,111.75,1.18,1.18,0,0,0,69.22,110.57Zm4.58.63a1.18,1.18,0,1,0-1.17,1.17A1.17,1.17,0,0,0,73.8,111.2ZM51.5,129.58a1.18,1.18,0,1,0-1.17,1.17A1.17,1.17,0,0,0,51.5,129.58ZM28.26,109.4a1.17,1.17,0,1,0-1.17,1.17A1.17,1.17,0,0,0,28.26,109.4Zm-6,17.35a1.17,1.17,0,1,0-1.17,1.18A1.17,1.17,0,0,0,22.22,126.75ZM11.3,130.46a1.17,1.17,0,1,0-1.17,1.18A1.17,1.17,0,0,0,11.3,130.46Zm0-31.86a1.17,1.17,0,1,0-1.17,1.18A1.17,1.17,0,0,0,11.3,98.6ZM2.68,118.23a1.18,1.18,0,1,0-1.18,1.18A1.18,1.18,0,0,0,2.68,118.23ZM32,85.89a1.18,1.18,0,1,0-1.18,1.17A1.18,1.18,0,0,0,32,85.89ZM22.89,73.07a1.17,1.17,0,1,0-1.17,1.17A1.17,1.17,0,0,0,22.89,73.07Zm6.55-9.72a1.18,1.18,0,1,0-1.18,1.17A1.17,1.17,0,0,0,29.44,63.35Zm7.94,22.07a1.18,1.18,0,1,0-1.17,1.17A1.17,1.17,0,0,0,37.38,85.42Zm-7.1-33.83a1.17,1.17,0,1,0-1.17,1.17A1.17,1.17,0,0,0,30.28,51.59Zm17.35,14a1.17,1.17,0,1,0-1.17,1.17A1.17,1.17,0,0,0,47.63,65.56ZM56.5,41a1.17,1.17,0,1,0-1.34,1A1.17,1.17,0,0,0,56.5,41ZM42.41,26.13a1.17,1.17,0,1,0-1.34,1A1.17,1.17,0,0,0,42.41,26.13Zm8.7-20.6a1.17,1.17,0,1,0-1.34,1A1.17,1.17,0,0,0,51.11,5.53Zm18.63,16.8a1.16,1.16,0,0,0-1-1.33,1.17,1.17,0,0,0-.36,2.32A1.19,1.19,0,0,0,69.74,22.33ZM64.47,7.58a1.17,1.17,0,0,0-1-1.34,1.19,1.19,0,0,0-1.34,1,1.16,1.16,0,0,0,1,1.33A1.17,1.17,0,0,0,64.47,7.58ZM64,34.24a1.17,1.17,0,1,0-1.34,1A1.17,1.17,0,0,0,64,34.24Zm1.42,18a1.17,1.17,0,1,0-.86,1.42A1.17,1.17,0,0,0,65.37,52.21ZM82,41.27a1.17,1.17,0,1,0-.85,1.43A1.17,1.17,0,0,0,82,41.27ZM93.39,69.1a1.18,1.18,0,1,0-.86,1.42A1.17,1.17,0,0,0,93.39,69.1ZM74.94,81.65a1.17,1.17,0,1,0-.86,1.42A1.18,1.18,0,0,0,74.94,81.65Zm14.15,28.1a1.17,1.17,0,1,0-.85,1.42A1.17,1.17,0,0,0,89.09,109.75Zm18.84-9.44a1.17,1.17,0,1,0-.86,1.42A1.17,1.17,0,0,0,107.93,100.31Zm-8-9.23a1.17,1.17,0,1,0-.86,1.42A1.18,1.18,0,0,0,100,91.08Zm3,31.37a1.17,1.17,0,1,0-2.28.56,1.17,1.17,0,0,0,2.28-.56Zm7.74-15.63a1.18,1.18,0,0,0-1.42-.86,1.17,1.17,0,1,0,1.42.86Zm2.31,20.62a1.16,1.16,0,0,0-1.42-.85,1.17,1.17,0,1,0,1.42.85Zm9.67-16a1.17,1.17,0,1,0-.86,1.42A1.18,1.18,0,0,0,122.73,111.47Zm27.41,8a1.17,1.17,0,1,0-.86,1.42A1.18,1.18,0,0,0,150.14,119.5Zm9-13.25a1.18,1.18,0,1,0-1.38.93A1.18,1.18,0,0,0,159.17,106.25ZM146.44,96.09a1.17,1.17,0,1,0-2.3-.45,1.17,1.17,0,1,0,2.3.45Zm18-3.1a1.17,1.17,0,1,0-1.37.93A1.17,1.17,0,0,0,164.44,93Zm-19.81-7.86a1.18,1.18,0,1,0-1.38.93A1.18,1.18,0,0,0,144.63,85.13Zm11.76-25.06a1.17,1.17,0,0,0-2.3-.44,1.17,1.17,0,0,0,2.3.44ZM134.8,69.15a1.18,1.18,0,1,0-1.38.93A1.19,1.19,0,0,0,134.8,69.15Zm8.27-18.05a1.18,1.18,0,1,0-1.38.93A1.18,1.18,0,0,0,143.07,51.1Zm-22.68,3.69a1.18,1.18,0,1,0-1.37.93A1.19,1.19,0,0,0,120.39,54.79Zm9.27-21.46a1.17,1.17,0,1,0-1.37.93A1.18,1.18,0,0,0,129.66,33.33Zm20-2.48a1.17,1.17,0,1,0-1.37.93A1.16,1.16,0,0,0,149.66,30.85ZM155.29,14a1.18,1.18,0,1,0-1.38.93A1.18,1.18,0,0,0,155.29,14Zm3.85-5.08a1.18,1.18,0,1,0-1.38.93A1.18,1.18,0,0,0,159.14,8.93ZM112.89,21a1.18,1.18,0,1,0-1.38.94A1.18,1.18,0,0,0,112.89,21Zm19.8.63a1.17,1.17,0,0,0-.93-1.37,1.17,1.17,0,0,0-.44,2.3A1.17,1.17,0,0,0,132.69,21.66Zm-39.6-19a1.17,1.17,0,1,0-1.37.93A1.16,1.16,0,0,0,93.09,2.65Zm33.34-.39a1.17,1.17,0,1,0-2.3-.44,1.17,1.17,0,0,0,2.3.44ZM90.66,64.45a.54.54,0,1,0-.63.42A.53.53,0,0,0,90.66,64.45Zm-4.82-10.6a.54.54,0,1,0-.63.42A.54.54,0,0,0,85.84,53.85Zm-22.1-4a.53.53,0,0,0-1.05-.2.53.53,0,0,0,.42.63A.53.53,0,0,0,63.74,49.81ZM54.9,38.62a.54.54,0,0,0-1.06-.2.54.54,0,0,0,.43.63A.55.55,0,0,0,54.9,38.62Zm-1,8.06a.55.55,0,0,0-.43-.63.53.53,0,1,0,.43.63ZM45,16.37a.54.54,0,1,0-.63.42A.53.53,0,0,0,45,16.37ZM59.66,1.6a.54.54,0,0,0-1.06-.2.54.54,0,1,0,1.06.2Zm-5.58,1A.52.52,0,0,0,53.66,2a.54.54,0,1,0,.42.62ZM41.31,29.11a.54.54,0,1,0-.63.42A.54.54,0,0,0,41.31,29.11ZM33.45,46.68a.53.53,0,0,0-.43-.63.53.53,0,0,0-.2,1.05A.53.53,0,0,0,33.45,46.68Zm6.18-11.16A.53.53,0,1,0,39,36,.53.53,0,0,0,39.63,35.52Zm10.1,21a.53.53,0,1,0-.63.43A.54.54,0,0,0,49.73,56.57ZM40,71.19a.54.54,0,0,0-1.06-.2.55.55,0,0,0,.43.63A.53.53,0,0,0,40,71.19ZM19.07,77a.53.53,0,1,0-1.05-.2.53.53,0,0,0,1.05.2Zm10.68,26.67a.53.53,0,1,0-.63.43A.54.54,0,0,0,29.75,103.66ZM13.21,91.9a.54.54,0,0,0-.74-.21.54.54,0,0,0,.53.94A.54.54,0,0,0,13.21,91.9ZM13,94.77a.54.54,0,0,0-.94.52.54.54,0,0,0,.94-.52Zm-6.83,14a.53.53,0,0,0,.42-.63A.54.54,0,0,0,6,107.7a.54.54,0,0,0-.41.64A.53.53,0,0,0,6.2,108.75Zm36,1.81a.53.53,0,0,0,.41-.63.54.54,0,0,0-.64-.42.54.54,0,0,0-.41.64A.53.53,0,0,0,42.16,110.56ZM26.79,130.45a.53.53,0,0,0,.41-.63.53.53,0,0,0-.63-.42.54.54,0,0,0-.42.64A.53.53,0,0,0,26.79,130.45Zm47.45-4.69a.54.54,0,1,0-.64-.41A.54.54,0,0,0,74.24,125.76ZM97.92,81.42a.54.54,0,1,0-.63.43A.54.54,0,0,0,97.92,81.42ZM84.57,101.5a.54.54,0,1,0-.63.42A.53.53,0,0,0,84.57,101.5Zm22.75,2.88a.54.54,0,1,0-.63.42A.54.54,0,0,0,107.32,104.38Zm14.85,25.48a.54.54,0,1,0-.44.62A.53.53,0,0,0,122.17,129.86Zm13-24a.54.54,0,0,0-.63-.43.53.53,0,0,0-.43.62.53.53,0,0,0,.62.43A.54.54,0,0,0,135.2,105.9Zm7.19,18.23a.54.54,0,0,0-.63-.43.53.53,0,0,0-.43.62.53.53,0,0,0,.62.43A.54.54,0,0,0,142.39,124.13Zm15-14.93a.53.53,0,0,0-.62-.43.54.54,0,0,0-.44.62.56.56,0,0,0,.63.44A.55.55,0,0,0,157.4,109.2Zm5.9-23.89a.53.53,0,1,0-.43.62A.53.53,0,0,0,163.3,85.31Zm-17.48,3.91a.54.54,0,1,0-.44.62A.54.54,0,0,0,145.82,89.22Zm-6.14-14a.53.53,0,0,0-.62-.44.53.53,0,0,0-.43.62.53.53,0,1,0,1.05-.18Zm18.79-6.62a.53.53,0,0,0-.62-.43.54.54,0,0,0-.44.62.56.56,0,0,0,.63.44A.54.54,0,0,0,158.47,68.62ZM146.59,60.1a.53.53,0,0,0,.72-.23.54.54,0,1,0-1-.49A.54.54,0,0,0,146.59,60.1ZM119,62.59a.53.53,0,1,0,.49-1,.53.53,0,1,0-.49,1Zm3.63-14.48a.53.53,0,1,0-.24-.72A.53.53,0,0,0,122.62,48.11Zm18.91,0a.54.54,0,0,0,.28-.71.53.53,0,0,0-.7-.28.54.54,0,1,0,.42,1Zm5.76-8.55a.54.54,0,0,0-.42-1,.54.54,0,1,0,.42,1Zm-16.68-4.93a.54.54,0,1,0-.71-.28A.54.54,0,0,0,130.61,34.65Zm2.15-12a.54.54,0,1,0-.7-.28A.53.53,0,0,0,132.76,22.64ZM156.38,6.13a.54.54,0,0,0,.28-.71.53.53,0,0,0-.7-.28.54.54,0,0,0-.29.7A.55.55,0,0,0,156.38,6.13ZM135.21,3.91a.54.54,0,0,0,.28-.71.54.54,0,0,0-1,.42A.56.56,0,0,0,135.21,3.91Zm-37.49-1a.53.53,0,1,0-.42-1,.53.53,0,0,0,.42,1ZM88.26,20.13a.53.53,0,1,0-.42-1,.53.53,0,0,0,.42,1Z"/><path class="cls-3" d="M148.21,1.5a10.26,10.26,0,0,1,9.46,14.24L142.15,52.61a41.06,41.06,0,0,1-19,77.47c-17.3,0-31-9-37.71-24.81-3.39-8-18.21-43.24-28.22-67l-30,71.36H66a10.27,10.27,0,0,1,0,20.53H11.77A10.28,10.28,0,0,1,2.3,115.86L47.8,7.78A10.25,10.25,0,0,1,57.26,1.5h0a10.26,10.26,0,0,1,9.46,6.29s32.43,77.13,37.65,89.49c3.45,8.15,9.78,12.28,18.81,12.28a20.52,20.52,0,0,0,3.52-40.74A10.27,10.27,0,0,1,119,54.72L132.76,22H94A10.27,10.27,0,0,1,94,1.5h54.23m0-1.5H94a11.77,11.77,0,0,0,0,23.53H130.5L117.61,54.14a11.75,11.75,0,0,0,8.84,16.15,19,19,0,0,1-3.27,37.77c-8.49,0-14.19-3.72-17.43-11.36C100.59,84.48,68.43,8,68.1,7.2a11.76,11.76,0,0,0-21.68,0L.92,115.28a11.78,11.78,0,0,0,10.85,16.33H66a11.77,11.77,0,0,0,0-23.53H29.47l27.78-66c9.4,22.36,23.54,56,26.84,63.77,6.91,16.35,21.16,25.72,39.09,25.72a42.56,42.56,0,0,0,20.88-79.64l15-35.62A11.76,11.76,0,0,0,148.21,0Z"/></g></g></svg>