<svg xmlns="http://www.w3.org/2000/svg" viewBox="0 0 405.67 346.09"><defs><style>.cls-1{fill:#407085;}.cls-2{fill:#6d91a1;}.cls-3{fill:#e48080;}</style></defs><title>edit_properties</title><g id="Layer_2" data-name="Layer 2"><g id="edit_properties"><path id="shadow" class="cls-1" d="M397.48,304.44,353.54,144.9a9,9,0,0,0-8.71-6.65H330.64l-5-16.68a9,9,0,0,0-7.76-6.39,120,120,0,0,1-40.43-12.79,68.54,68.54,0,0,0-33.1-8.55A70.72,70.72,0,0,0,211,102.35a48.86,48.86,0,0,0-12.26,10.34A74.22,74.22,0,0,0,182.55,100c-8-4.29-19-6.66-31-6.66a79.7,79.7,0,0,0-42.91,11.69C93.71,114.7,83.82,115.18,82,115.18h-.79a9.12,9.12,0,0,0-8.7,6.45L70,129.84a8.7,8.7,0,0,0-1.17,2.53s-.55,2.15-1.52,5.88H55.75a9.1,9.1,0,0,0-8.69,6.52L.83,304.32a8.7,8.7,0,0,0-.36,2.48,9.06,9.06,0,0,0,9,9.09,9.82,9.82,0,0,0,1.87-.2,431.29,431.29,0,0,1,75.78-7.84c30.05,0,51.44,5.12,61.83,14.83,16.64,15.55,34,23.41,51.54,23.41h2.58c17.08-.75,33.21-9,46.61-23.9,8.13-9,31.56-14.18,64.27-14.18,8,0,16.31.34,22.78.93l50.67,6.91a8.15,8.15,0,0,0,1.21,0,9.16,9.16,0,0,0,8.84-11.41ZM293.55,263.2a113.16,113.16,0,0,0-15.93,1.05c-28.19,4-41.31,9.73-51.84,14.33l-1.42.61c-1.48.63-2.9,1.23-4.3,1.78A109.47,109.47,0,0,0,198,294.08,162.07,162.07,0,0,0,174.28,279c-14.68-7.33-29.63-12.38-58.78-14.81-2.94-.24-6.38-.37-10.23-.37a246.21,246.21,0,0,0-51.42,5.6c4.56-21.91,16.07-68.87,30.4-124L88,132.71a79.44,79.44,0,0,0,30.4-12.5,62.92,62.92,0,0,1,33.18-8.82c8.81,0,17,1.67,22.41,4.56a66.66,66.66,0,0,1,14.9,12.61v66.13a9.14,9.14,0,0,0,0,1.48,9,9,0,1,0,18-1.48V131c3.36-4.44,9-10.74,12.58-12.77a55.12,55.12,0,0,1,25.24-6.34,48.66,48.66,0,0,1,23.89,6.28A136.42,136.42,0,0,0,310,132.39l3.83,12.83a5.54,5.54,0,0,1,.16.83l31.07,123.83C332.06,266.88,312.18,263.2,293.55,263.2Z"/><path id="thes" class="cls-2" d="M397,294.21,353.07,134.67a9,9,0,0,0-8.72-6.65H330.17l-5-16.68a9,9,0,0,0-7.76-6.38A120.44,120.44,0,0,1,277,92.17a68.47,68.47,0,0,0-33.1-8.56,70.58,70.58,0,0,0-33.34,8.52,48.61,48.61,0,0,0-12.26,10.33A74,74,0,0,0,182.07,89.8c-8-4.3-19-6.67-31-6.67a79.69,79.69,0,0,0-42.9,11.69C93.24,104.47,83.35,105,81.51,105h-.79A9.11,9.11,0,0,0,72,111.4l-2.47,8.21a9.13,9.13,0,0,0-1.18,2.53s-.54,2.15-1.52,5.88H55.28a9.1,9.1,0,0,0-8.69,6.53L.36,294.09A8.7,8.7,0,0,0,0,296.57a9.05,9.05,0,0,0,9,9.09,8.9,8.9,0,0,0,1.86-.2,431.39,431.39,0,0,1,75.78-7.84c30.06,0,51.44,5.13,61.84,14.83,16.64,15.55,34,23.41,51.54,23.41h2.57c17.09-.75,33.22-9,46.62-23.89,8.13-9,31.56-14.19,64.27-14.19,8,0,16.31.34,22.78.93L387,305.62a8.15,8.15,0,0,0,1.21,0A9.16,9.16,0,0,0,397,294.21ZM293.08,253A114.68,114.68,0,0,0,277.15,254c-28.19,4-41.31,9.73-51.85,14.33l-1.42.61c-1.47.63-2.89,1.24-4.29,1.78a108.78,108.78,0,0,0-22.07,13.12,160.51,160.51,0,0,0-23.72-15.1c-14.67-7.34-29.63-12.39-58.77-14.82-2.94-.24-6.39-.36-10.24-.36a246.18,246.18,0,0,0-51.41,5.59c4.56-21.91,16.07-68.87,30.4-124l3.79-12.66A79.61,79.61,0,0,0,118,110a62.8,62.8,0,0,1,33.18-8.81c8.81,0,17,1.66,22.41,4.56a66.36,66.36,0,0,1,14.9,12.6v66.13a9.27,9.27,0,0,0,0,1.49,9,9,0,0,0,18-1.49V120.8c3.36-4.43,9-10.74,12.58-12.76a55.09,55.09,0,0,1,25.23-6.35,48.68,48.68,0,0,1,23.9,6.29,136.7,136.7,0,0,0,41.32,14.18L313.35,135a5.79,5.79,0,0,1,.16.83l31.07,123.84C331.59,256.66,311.7,253,293.08,253Z"/><path id="lines" class="cls-3" d="M179.86,204.93a6.88,6.88,0,0,1-6.5,5.19,6.56,6.56,0,0,1-2.44-.49,71.14,71.14,0,0,0-24.42-3.76,104.74,104.74,0,0,0-51.35,14.18,6.23,6.23,0,0,1-3.1.83,6.81,6.81,0,0,1-6.29-4.58,7.83,7.83,0,0,1,3.17-9.53c19-10.67,38.33-16,57.6-16a80,80,0,0,1,29.37,4.93A7.71,7.71,0,0,1,179.86,204.93Zm-4,20.78a97.74,97.74,0,0,0-35.7-6.18,114.7,114.7,0,0,0-56.55,15,7.82,7.82,0,0,0-3.17,9.52,6.79,6.79,0,0,0,6.31,4.62,6.3,6.3,0,0,0,3.12-.82,101.9,101.9,0,0,1,50.26-13.28,89.88,89.88,0,0,1,30.83,5,6.37,6.37,0,0,0,2.44.49,6.87,6.87,0,0,0,6.44-5.21A7.67,7.67,0,0,0,175.88,225.71Zm-76.8-34.87a6.33,6.33,0,0,0,3.12-.83c16-8.94,31.45-13.49,45.89-13.49,13.79,0,21.65,4.31,21.72,4.34a6.32,6.32,0,0,0,3.2.89,6.79,6.79,0,0,0,6.29-4.44,7.82,7.82,0,0,0-3-9.58c-1.07-.64-11-6.26-28.18-6.26-16.53,0-34.1,5.15-52.19,15.26a7.84,7.84,0,0,0-3.16,9.53A6.81,6.81,0,0,0,99.08,190.84Zm5.31-30.06a6.31,6.31,0,0,0,3.2-.88c15.18-8.85,28.8-13.34,40.48-13.34,12.61,0,18.34,5.28,18.79,5.63a6.47,6.47,0,0,0,4.74,2.09,6.58,6.58,0,0,0,5.26-2.71,8,8,0,0,0-.38-9.95c-.94-1-9.69-10.09-28.18-10.09-13.92,0-29.76,5.13-47,15.22a7.84,7.84,0,0,0-3,9.56,6.81,6.81,0,0,0,6.16,4.53ZM259.33,222h0v-1.88h0a95.84,95.84,0,0,0-35.22,6.18,7.74,7.74,0,0,0-3.93,9.24,6.86,6.86,0,0,0,6.46,5.23,6.35,6.35,0,0,0,2.47-.51,87.4,87.4,0,0,1,30.36-5A99.61,99.61,0,0,1,309,248.52a6.31,6.31,0,0,0,3.12.84,6.73,6.73,0,0,0,6.23-4.6,7.83,7.83,0,0,0-3.13-9.49,112,112,0,0,0-55.82-15Zm-30.94-67a6.45,6.45,0,0,0,4.83-2.16c.17-.19,5.64-5.64,18.22-5.64,11.46,0,24.93,4.51,40,13.44a6.37,6.37,0,0,0,3.21.9,6.79,6.79,0,0,0,6.22-4.49,7.89,7.89,0,0,0-3-9.55c-17.06-10.09-32.69-15.21-46.45-15.21v1.87h0v-2h0c-18.28,0-26.94,9.08-27.88,10.11a8,8,0,0,0-.49,10A6.53,6.53,0,0,0,228.39,155.05Zm-1.75,55.72a6.49,6.49,0,0,0,2.5-.5,68,68,0,0,1,24-3.76,102.4,102.4,0,0,1,50.69,14.14,6.32,6.32,0,0,0,3.12.85,6.8,6.8,0,0,0,6.26-4.58,7.89,7.89,0,0,0-3.24-9.55c-18.67-10.59-37.8-16-56.83-16v1.88h0V191.4h0a78.05,78.05,0,0,0-29,4.94,7.7,7.7,0,0,0-4,9.15A6.82,6.82,0,0,0,226.64,210.77Zm.34-28.39a6.32,6.32,0,0,0,3.23-.88s7.76-4.32,21.35-4.32c14.24,0,29.45,4.53,45.24,13.47a6.29,6.29,0,0,0,3.11.85,6.74,6.74,0,0,0,6.24-4.61,7.82,7.82,0,0,0-3.14-9.48c-17.84-10.13-35.18-15.28-51.51-15.28h0c-16.91,0-26.73,5.64-27.79,6.26a7.83,7.83,0,0,0-2.93,9.54A6.76,6.76,0,0,0,227,182.38Z"/><g id="Layer_2-2" data-name="Layer 2"><g id="Layer_1-2" data-name="Layer 1-2"><path id="edit-circle" class="cls-3" d="M337.89,0a67.78,67.78,0,1,0,67.78,67.78A67.78,67.78,0,0,0,337.89,0ZM323.35,99.29,304.85,102a1,1,0,0,1-1.2-.8,1,1,0,0,1,0-.38L308,84a1.42,1.42,0,0,1,2.36-.89l13.85,13.84a1.42,1.42,0,0,1-.15,2A1.48,1.48,0,0,1,323.35,99.29Zm42.81-41.76L330.91,92.75a1.94,1.94,0,0,1-2.75,0L314.55,79.2a2,2,0,0,1,0-2.76l35.26-35.29a2,2,0,0,1,2.75,0l13.6,13.6A2,2,0,0,1,366.16,57.53ZM373.69,50l-1.32,1.31a1.62,1.62,0,0,1-2.29,0L356,37.22A1.59,1.59,0,0,1,356,35l1.34-1.33a3.57,3.57,0,0,1,5,0L373.69,45a3.57,3.57,0,0,1,0,5Z"/></g></g></g></g></svg>