<svg xmlns="http://www.w3.org/2000/svg" viewBox="0 0 357.48 388.33"><defs><style>.cls-1{fill:#9dc0cf;}.cls-2{fill:#407085;}.cls-3{fill:#96b947;}</style></defs><g id="Layer_2" data-name="Layer 2"><g id="new_sdtm"><g id="Layer_2-2" data-name="Layer 2"><g id="Layer_1-2" data-name="Layer 1-2"><g id="sdtm"><polygon class="cls-1" points="268.54 239.72 268.54 388.33 237.95 388.33 237.95 310.79 211.45 366.06 210.49 368.03 186.44 368.03 185.48 366.06 159.11 311.02 159.11 388.33 128.5 388.33 128.5 239.72 156.41 239.72 157.37 241.69 198.87 327.42 239.55 241.71 240.49 239.72 268.54 239.72"/><polygon class="cls-1" points="115.97 239.72 115.97 265.83 73.33 265.83 73.33 388.33 42.64 388.33 42.64 265.83 0 265.83 0 239.72 115.97 239.72"/><path class="cls-2" d="M266.64,122.79v-.12a44,44,0,0,0-7.73-18.1C247.7,87.83,230.79,79.3,208.59,79.16h-58V227.79H207c12.21,0,22.69-2.52,31.29-7.44a56.11,56.11,0,0,0,20.21-17.61,75.75,75.75,0,0,0,4.59-7.64h0a37.6,37.6,0,0,0,2.83-9c1.27-6.26,1.88-16.91,1.88-32.49A265.9,265.9,0,0,0,266.64,122.79Zm-60.7,77.7H181.17V106.44H207c10.47,0,18.25,3.49,24,10.64l.1.14.12.13a19.66,19.66,0,0,1,5.14,11,249.57,249.57,0,0,1,.94,25.94,221.39,221.39,0,0,1-.94,25.36,18.92,18.92,0,0,1-4.19,9.75l-.11.12-.09.13C226.58,196.93,218.15,200.49,205.94,200.49Z"/><path class="cls-2" d="M129.81,184.26v.19c-.42,14.59-5.69,25.8-15.71,33.28-9.63,7.21-23.92,11-42.55,11.21-23.77,0-44.52-6.77-61.65-20.16L7,206.39l2.58-2.74,15.5-16.13,2.15-2.21,2.46,1.79c11.73,8.73,25.92,13.27,42.11,13.39,27-.35,27.24-12.36,27.33-16.27,0-5.49-1.64-13.09-17.29-15.55-6.23-.76-13.16-1.64-20.67-2.61-14.08-2.12-25-7-32.51-14.49a39.26,39.26,0,0,1-11.82-28.71A40.6,40.6,0,0,1,31.62,90.3c9.36-8,22.69-12.22,39.53-12.22h.11c19.95.4,37.57,5.53,52.36,15.23l3.12,2-2.22,3-13.14,17.68-1.88,2.53-2.71-1.63A73.37,73.37,0,0,0,70,106.44a28.37,28.37,0,0,0-16.19,4.34,14.41,14.41,0,0,0-6.29,12.47,11.59,11.59,0,0,0,4.17,8.56c3,2.87,8,4.91,14.89,6.06,4.21.65,10.07,1.38,17.45,2.22,15.38,1.92,27,7.1,34.52,15.39A41.56,41.56,0,0,1,129.81,184.26Z"/></g></g></g><g id="new"><g id="Layer_1-2-2" data-name="Layer 1-2"><path id="plus-circle" class="cls-3" d="M289.6,0a67.88,67.88,0,1,0,67.88,67.88A67.88,67.88,0,0,0,289.6,0Zm37.15,72.17a3.57,3.57,0,0,1-3.57,3.57H297.1v26.08a3.57,3.57,0,0,1-3.57,3.58h-7.86a3.57,3.57,0,0,1-3.57-3.58V75.74H256a3.57,3.57,0,0,1-3.57-3.57V64.31A3.57,3.57,0,0,1,256,60.74H282.1V34.66a3.57,3.57,0,0,1,3.57-3.58h7.86a3.57,3.57,0,0,1,3.57,3.58V60.74h26.08a3.57,3.57,0,0,1,3.57,3.57Z"/></g></g></g></g></svg>