<svg xmlns="http://www.w3.org/2000/svg" viewBox="0 0 403.9 340.48"><defs><style>.cls-1{fill:#407085;}.cls-2{fill:#6d91a1;}.cls-3{fill:#96b947;}</style></defs><title>new_thesaurus</title><g id="Layer_2" data-name="Layer 2"><g id="new_thesaurus"><path id="shadow" class="cls-1" d="M397.48,298.83,353.54,139.29a9,9,0,0,0-8.71-6.65H330.64l-5-16.68a9,9,0,0,0-7.76-6.38,120.44,120.44,0,0,1-40.43-12.79,68.44,68.44,0,0,0-33.1-8.56A70.73,70.73,0,0,0,211,96.75a48.82,48.82,0,0,0-12.26,10.33,74.18,74.18,0,0,0-16.21-12.66c-8-4.3-19-6.67-31-6.67a79.7,79.7,0,0,0-42.91,11.69C93.71,109.09,83.82,109.58,82,109.58h-.79a9.11,9.11,0,0,0-8.7,6.44L70,124.23a8.82,8.82,0,0,0-1.17,2.53s-.55,2.15-1.52,5.88H55.75a9.11,9.11,0,0,0-8.69,6.53L.83,298.71a8.72,8.72,0,0,0-.36,2.49,9,9,0,0,0,10.9,8.88,431.29,431.29,0,0,1,75.78-7.84c30.05,0,51.44,5.13,61.83,14.83,16.64,15.55,34,23.41,51.54,23.41h2.58c17.08-.75,33.21-9,46.61-23.89,8.13-9,31.56-14.19,64.27-14.19,8,0,16.31.34,22.78.93l50.67,6.91a8.15,8.15,0,0,0,1.21,0,9.16,9.16,0,0,0,8.84-11.41ZM293.55,257.59a114.68,114.68,0,0,0-15.93,1.05c-28.19,4-41.31,9.73-51.84,14.33l-1.42.61c-1.48.63-2.9,1.24-4.3,1.78A109.05,109.05,0,0,0,198,288.48a160.41,160.41,0,0,0-23.71-15.1C159.6,266,144.65,261,115.5,258.56c-2.94-.24-6.38-.36-10.23-.36a246.2,246.2,0,0,0-51.42,5.59c4.56-21.91,16.07-68.87,30.4-124L88,127.11a79.61,79.61,0,0,0,30.4-12.51,62.82,62.82,0,0,1,33.18-8.81c8.81,0,17,1.66,22.41,4.56a66.36,66.36,0,0,1,14.9,12.6v66.13a9.27,9.27,0,0,0,0,1.49,9,9,0,0,0,18-1.49V125.43c3.36-4.44,9-10.75,12.58-12.77a55.13,55.13,0,0,1,25.24-6.35,48.67,48.67,0,0,1,23.89,6.29A136.67,136.67,0,0,0,310,126.78l3.83,12.83a5.79,5.79,0,0,1,.16.83l31.07,123.84C332.06,261.28,312.18,257.59,293.55,257.59Z"/><path id="thes" class="cls-2" d="M397,288.61,353.07,129.06a9.06,9.06,0,0,0-8.72-6.65H330.17l-5-16.68a9,9,0,0,0-7.76-6.38A120,120,0,0,1,277,86.56,68.46,68.46,0,0,0,243.89,78a70.57,70.57,0,0,0-33.34,8.51,48.86,48.86,0,0,0-12.26,10.34,74,74,0,0,0-16.22-12.67c-8-4.3-19-6.67-31-6.67a79.7,79.7,0,0,0-42.9,11.7C93.24,98.86,83.35,99.35,81.51,99.35h-.79a9.11,9.11,0,0,0-8.7,6.44L69.55,114a9.05,9.05,0,0,0-1.18,2.54s-.54,2.14-1.52,5.87H55.28a9.1,9.1,0,0,0-8.69,6.53L.36,288.48A8.77,8.77,0,0,0,0,291a9.06,9.06,0,0,0,9,9.09,9.64,9.64,0,0,0,1.86-.21A432.34,432.34,0,0,1,86.67,292c30.06,0,51.44,5.13,61.84,14.84,16.64,15.54,34,23.41,51.54,23.41h2.57c17.09-.75,33.22-9,46.62-23.9,8.13-9,31.56-14.19,64.27-14.19,8,0,16.31.35,22.78.94L387,300a8.15,8.15,0,0,0,1.21,0A9.16,9.16,0,0,0,397,288.61ZM293.08,247.36a113.17,113.17,0,0,0-15.93,1.06c-28.19,4-41.31,9.72-51.85,14.32l-1.42.61c-1.47.63-2.89,1.24-4.29,1.79a109.2,109.2,0,0,0-22.07,13.11,160.51,160.51,0,0,0-23.72-15.1c-14.67-7.34-29.63-12.38-58.77-14.82-2.94-.24-6.39-.36-10.24-.36a246.18,246.18,0,0,0-51.41,5.59c4.56-21.91,16.07-68.87,30.4-124l3.79-12.67A79.3,79.3,0,0,0,118,104.37a62.8,62.8,0,0,1,33.18-8.81c8.81,0,17,1.66,22.41,4.56a66.14,66.14,0,0,1,14.9,12.61v66.13a9.14,9.14,0,0,0,0,1.48,9,9,0,1,0,18-1.48V115.2c3.36-4.44,9-10.74,12.58-12.77a55,55,0,0,1,25.23-6.34,48.56,48.56,0,0,1,23.9,6.28,136.45,136.45,0,0,0,41.32,14.19l3.84,12.82a5.67,5.67,0,0,1,.16.84l31.07,123.83C331.59,251.05,311.7,247.36,293.08,247.36Z"/><path id="lines" class="cls-1" d="M179.86,199.32a6.88,6.88,0,0,1-6.5,5.19,6.37,6.37,0,0,1-2.44-.49,71.14,71.14,0,0,0-24.42-3.76,104.64,104.64,0,0,0-51.35,14.19,6.22,6.22,0,0,1-3.1.82,6.81,6.81,0,0,1-6.29-4.58,7.83,7.83,0,0,1,3.17-9.53c19-10.67,38.33-16,57.6-16a79.94,79.94,0,0,1,29.37,4.92A7.72,7.72,0,0,1,179.86,199.32Zm-4,20.78a98,98,0,0,0-35.7-6.18,114.81,114.81,0,0,0-56.55,15,7.83,7.83,0,0,0-3.17,9.53,6.81,6.81,0,0,0,6.31,4.62,6.3,6.3,0,0,0,3.12-.83A101.9,101.9,0,0,1,140.15,229,89.88,89.88,0,0,1,171,234a6.37,6.37,0,0,0,2.44.49,6.86,6.86,0,0,0,6.44-5.2A7.69,7.69,0,0,0,175.88,220.1Zm-76.8-34.87a6.43,6.43,0,0,0,3.12-.82c16-8.95,31.45-13.49,45.89-13.49,13.79,0,21.65,4.3,21.72,4.34a6.31,6.31,0,0,0,3.2.88,6.78,6.78,0,0,0,6.29-4.43,7.83,7.83,0,0,0-3-9.59c-1.07-.64-11-6.25-28.18-6.25-16.53,0-34.1,5.15-52.19,15.25a7.84,7.84,0,0,0-3.16,9.53A6.81,6.81,0,0,0,99.08,185.23Zm5.31-30.06a6.21,6.21,0,0,0,3.2-.88c15.18-8.85,28.8-13.34,40.48-13.34,12.61,0,18.34,5.28,18.79,5.64a6.46,6.46,0,0,0,4.74,2.08,6.57,6.57,0,0,0,5.26-2.7,8,8,0,0,0-.38-10c-.94-1-9.69-10.09-28.18-10.09-13.92,0-29.76,5.13-47,15.22a7.84,7.84,0,0,0-3,9.56,6.81,6.81,0,0,0,6.16,4.53ZM259.33,216.4h0v-1.88h0a95.84,95.84,0,0,0-35.22,6.18,7.75,7.75,0,0,0-3.93,9.25,6.84,6.84,0,0,0,6.46,5.22,6.17,6.17,0,0,0,2.47-.51,87.39,87.39,0,0,1,30.36-5A99.49,99.49,0,0,1,309,242.91a6.21,6.21,0,0,0,3.12.84,6.72,6.72,0,0,0,6.23-4.6,7.83,7.83,0,0,0-3.13-9.49,112,112,0,0,0-55.82-15Zm-30.94-67a6.42,6.42,0,0,0,4.83-2.16c.17-.19,5.64-5.63,18.22-5.63,11.46,0,24.93,4.5,40,13.43a6.37,6.37,0,0,0,3.21.9,6.78,6.78,0,0,0,6.22-4.49,7.87,7.87,0,0,0-3-9.54c-17.06-10.09-32.69-15.22-46.45-15.22v1.88h0v-2h0c-18.28,0-26.94,9.07-27.88,10.1a8.05,8.05,0,0,0-.49,10A6.52,6.52,0,0,0,228.39,149.44Zm-1.75,55.73a6.5,6.5,0,0,0,2.5-.51,68,68,0,0,1,24-3.76,102.41,102.41,0,0,1,50.69,14.15,6.21,6.21,0,0,0,3.12.84,6.77,6.77,0,0,0,6.26-4.58,7.89,7.89,0,0,0-3.24-9.55c-18.67-10.59-37.8-16-56.83-16v1.87h0V185.8h0a77.65,77.65,0,0,0-29,4.94,7.7,7.7,0,0,0-4,9.15A6.83,6.83,0,0,0,226.64,205.17Zm.34-28.39a6.33,6.33,0,0,0,3.23-.89s7.76-4.32,21.35-4.32c14.24,0,29.45,4.53,45.24,13.47a6.29,6.29,0,0,0,3.11.85,6.75,6.75,0,0,0,6.24-4.6A7.83,7.83,0,0,0,303,171.8c-17.84-10.13-35.18-15.28-51.51-15.28h0c-16.91,0-26.73,5.64-27.79,6.26a7.84,7.84,0,0,0-2.93,9.55A6.77,6.77,0,0,0,227,176.78Z"/><g id="new"><g id="Layer_1-2" data-name="Layer 1-2"><path id="plus-circle" class="cls-3" d="M336,0A67.88,67.88,0,1,0,403.9,67.88,67.88,67.88,0,0,0,336,0Zm37.16,72.17a3.57,3.57,0,0,1-3.58,3.57H343.52v26.08A3.57,3.57,0,0,1,340,105.4h-7.86a3.57,3.57,0,0,1-3.57-3.58V75.74H302.44a3.57,3.57,0,0,1-3.58-3.57V64.31a3.57,3.57,0,0,1,3.58-3.57h26.08V34.66a3.57,3.57,0,0,1,3.57-3.58H340a3.57,3.57,0,0,1,3.57,3.58V60.74H369.6a3.57,3.57,0,0,1,3.58,3.57Z"/></g></g></g></g></svg>