<svg xmlns="http://www.w3.org/2000/svg" viewBox="0 0 300 330"><defs><style>.cls-1{fill:#f2f2f2;}.cls-2{fill:#b3cc66;}.cls-3{fill:#6d91a1;}.cls-4{fill:#fff;}</style></defs><g id="Layer_2" data-name="Layer 2"><g id="study"><g id="btns"><g id="new_visit"><circle id="background" class="cls-1" cx="150" cy="180" r="150"/><path id="plus" class="cls-2" d="M290,58.23a5.06,5.06,0,0,1-5.06,5.05h-37v37a5,5,0,0,1-5.05,5H231.73a5,5,0,0,1-5-5V63.3h-37a5.07,5.07,0,0,1-5.06-5.06V47.09A5.06,5.06,0,0,1,189.7,42h37v-37a5,5,0,0,1,5.05-5h11.14a5.06,5.06,0,0,1,5.06,5.05V42h37a5,5,0,0,1,5.05,5Z"/><g id="hospital"><path class="cls-3" d="M115.12,234.26h-51v-77h51Zm125-76.27H189v77h51Zm-54.64-40V234.26H118.58V118Zm-13.2,86.21H131.78V213h40.46Zm0-17.59H131.78v8.79h40.46Zm0-17.6H131.78v8.8h40.46Z"/><path class="cls-4" d="M168.72,144.16a3.06,3.06,0,0,1-3.05,3.05h-9v9a3.06,3.06,0,0,1-3.05,3.05h-3.2a3.06,3.06,0,0,1-3.05-3.05v-9h-9a3.06,3.06,0,0,1-3.05-3.05V141a3,3,0,0,1,3.05-3h9v-9.06a3.06,3.06,0,0,1,3.05-3h3.2a3.06,3.06,0,0,1,3.05,3v9.05h9a3.05,3.05,0,0,1,3.05,3Z"/></g></g></g></g></g></svg>