<svg xmlns="http://www.w3.org/2000/svg" viewBox="0 0 392.75 445.41"><defs><style>.cls-1{fill:#c4c4c4;}.cls-2{fill:#6d91a1;}.cls-3{fill:#407085;}.cls-4{fill:none;stroke:#9dc0cf;stroke-linecap:round;stroke-miterlimit:10;stroke-width:8px;}.cls-5{fill:#e48080;}.cls-6{fill:#96b947;}</style></defs><g id="Layer_2" data-name="Layer 2"><g id="study"><g id="new_study"><g id="mglass"><rect class="cls-1" x="260.94" y="321.09" width="16.32" height="48.82" rx="6.32" transform="translate(-112.94 131.41) rotate(-22.82)"/><path class="cls-2" d="M227.83,344.76a76.76,76.76,0,0,1-19.36-5.06A75.83,75.83,0,1,1,307,240.06h0a75.87,75.87,0,0,1-79.17,104.7Zm15.78-128a53.13,53.13,0,1,0,42.44,32.12h0A53.1,53.1,0,0,0,243.61,216.75Z"/><rect class="cls-3" x="273.61" y="353.64" width="36.84" height="92.8" rx="14.71" transform="translate(-132.29 144.57) rotate(-22.82)"/><path class="cls-4" d="M198.93,272.27s.9-35.89,35.89-38.58"/></g><path class="cls-2" d="M250.77,434.8H39.13A39.16,39.16,0,0,1,0,395.68V114.92A39.16,39.16,0,0,1,39.13,75.8H250.77a39.15,39.15,0,0,1,39.12,39.12v56.87a13.44,13.44,0,1,1-26.87,0V114.92a12.25,12.25,0,0,0-12.25-12.24H39.13a12.24,12.24,0,0,0-12.25,12.24V395.68a12.25,12.25,0,0,0,12.25,12.25H250.77a13.44,13.44,0,1,1,0,26.87Z"/><rect class="cls-5" x="49.92" y="194.11" width="42.24" height="82.55" rx="12.46"/><rect class="cls-5" x="103.67" y="128.83" width="42.24" height="147.83" rx="12.46"/><path class="cls-3" d="M60.47,307.54h80.64A12.47,12.47,0,0,1,153.59,320h0a12.48,12.48,0,0,1-12.48,12.48H60.47A12.47,12.47,0,0,1,48,320h0A12.47,12.47,0,0,1,60.47,307.54Z"/><path class="cls-3" d="M60.47,351.93h144a12.48,12.48,0,0,1,12.48,12.48h0a12.48,12.48,0,0,1-12.48,12.48h-144A12.47,12.47,0,0,1,48,364.41h0A12.47,12.47,0,0,1,60.47,351.93Z"/><g id="new"><g id="Layer_1-2" data-name="Layer 1-2"><path id="plus-circle" class="cls-6" d="M323.48,0a69.27,69.27,0,1,0,69.27,69.27A69.27,69.27,0,0,0,323.48,0Zm37.91,73.65a3.64,3.64,0,0,1-3.64,3.64H331.13v26.62a3.64,3.64,0,0,1-3.64,3.64h-8a3.64,3.64,0,0,1-3.65-3.64V77.29H289.21a3.64,3.64,0,0,1-3.65-3.64v-8A3.64,3.64,0,0,1,289.21,62h26.61V35.37a3.64,3.64,0,0,1,3.65-3.65h8a3.64,3.64,0,0,1,3.64,3.65V62h26.62a3.64,3.64,0,0,1,3.64,3.65Z"/></g></g></g></g></g></svg>