<svg xmlns="http://www.w3.org/2000/svg" viewBox="0 0 368.32 418.17"><defs><style>.cls-1{fill:#3d3d3d;}.cls-2{fill:#8085bf;}.cls-3{fill:#9da3e0;}.cls-4{fill:#bfc5f7;}.cls-5{fill:#96b947;}</style></defs><g id="Layer_2" data-name="Layer 2"><g id="new_bc"><g id="bioconcept"><rect class="cls-1" x="113.49" y="222.22" width="159.46" height="18.03" transform="translate(-37.45 37.34) rotate(-10.07)"/><rect class="cls-1" x="201.98" y="259.79" width="97.2" height="18.62" transform="translate(-117.12 267.96) rotate(-46.86)"/><rect class="cls-1" x="36.91" y="312.99" width="97.2" height="18.92" transform="translate(-200.53 494.12) rotate(-106.12)"/><rect class="cls-1" x="74.93" y="173.45" width="97.2" height="18.88" transform="translate(-94.39 147.98) rotate(-46.86)"/><circle class="cls-2" cx="63.26" cy="252.13" r="63.26"/><circle class="cls-2" cx="307.05" cy="211.28" r="55.35"/><circle class="cls-3" cx="172.64" cy="125.62" r="47.44"/><circle class="cls-3" cx="104.11" cy="381.28" r="36.9"/><circle class="cls-4" cx="214.81" cy="304.84" r="32.95"/></g><g id="new"><g id="Layer_1-2" data-name="Layer 1-2"><path id="plus-circle" class="cls-5" d="M300.44,0a67.88,67.88,0,1,0,67.88,67.88A67.89,67.89,0,0,0,300.44,0Zm37.15,72.17A3.57,3.57,0,0,1,334,75.74H307.94v26.08a3.57,3.57,0,0,1-3.57,3.58h-7.86a3.58,3.58,0,0,1-3.58-3.58V75.74H266.85a3.57,3.57,0,0,1-3.57-3.57V64.31a3.57,3.57,0,0,1,3.57-3.57h26.08V34.66a3.58,3.58,0,0,1,3.58-3.58h7.86a3.57,3.57,0,0,1,3.57,3.58V60.74H334a3.57,3.57,0,0,1,3.57,3.57Z"/></g></g></g></g></svg>