<svg xmlns="http://www.w3.org/2000/svg" viewBox="0 0 327.52 410.72"><defs><style>.cls-1{fill:#6d91a1;}.cls-2{fill:#afe2cc;}.cls-3{fill:#96d6bc;}.cls-4{fill:#7dbca1;}.cls-5{fill:#96b947;}</style></defs><g id="Layer_2" data-name="Layer 2"><g id="new_form"><g id="form"><g id="Layer_1-2" data-name="Layer 1-2"><g id="forms"><path class="cls-1" d="M236.07,298.11v96.53A16.08,16.08,0,0,1,220,410.72H16.07A16.08,16.08,0,0,1,0,394.64V119.79a16.07,16.07,0,0,1,16.07-16.07H220a16,16,0,0,1,7,1.61,13.82,13.82,0,0,1,6,18.61l-.19.35L211.48,164.2a4,4,0,0,1-7.56-1.89V141.62a5.75,5.75,0,0,0-5.75-5.76H37.82a5.68,5.68,0,0,0-5.67,5.68h0V372.85a5.73,5.73,0,0,0,5.72,5.72H198.26a5.67,5.67,0,0,0,5.66-5.66v-27a15.05,15.05,0,0,1,1.82-7l22.77-42.66a4.05,4.05,0,0,1,7.56,1.9Z"/><path class="cls-2" d="M181,167.66H61.16a7.23,7.23,0,0,0-7.36,7.1v13.68a7.23,7.23,0,0,0,7.34,7.12H181a7.25,7.25,0,0,0,7.38-7.12h0V174.78a7.25,7.25,0,0,0-7.38-7.12Z"/><rect class="cls-3" x="53.8" y="213.51" width="96.55" height="27.9" rx="7.12"/><path class="cls-4" d="M129.47,287.28H59.2c-3,0-5.4-3.22-5.4-7.13V266.49c0-3.94,2.41-7.12,5.4-7.12h70.27c3,0,5.4,3.22,5.4,7.12v13.66C134.87,284.09,132.46,287.28,129.47,287.28Z"/><path id="edit" class="cls-2" d="M201,317.57l-37,17.51a2.25,2.25,0,0,1-3-.93,2.28,2.28,0,0,1-.26-.84l-1.46-38.09a3.22,3.22,0,0,1,2.83-3.57,3.13,3.13,0,0,1,1.54.21l37.74,20.23a3.21,3.21,0,0,1-.38,5.48ZM279.87,174.3,212,299.81a4.28,4.28,0,0,1-5.77,1.74l-37.11-19.9a4.28,4.28,0,0,1-1.74-5.77l67.86-125.55a4.28,4.28,0,0,1,5.79-1.76l0,0,37,19.89A4.33,4.33,0,0,1,279.87,174.3ZM291,155.75l-1.93,3.58a3.55,3.55,0,0,1-4.8,1.46h0l-38.35-20.61a3.47,3.47,0,0,1-1.44-4.69v0l1.95-3.63A7.82,7.82,0,0,1,257,128.62l30.86,16.55A7.83,7.83,0,0,1,291,155.75Z"/></g></g></g><g id="new"><g id="Layer_1-2-2" data-name="Layer 1-2"><path id="plus-circle" class="cls-5" d="M259.64,0a67.88,67.88,0,1,0,67.88,67.88A67.88,67.88,0,0,0,259.64,0Zm37.15,72.17a3.57,3.57,0,0,1-3.57,3.57H267.14v26.08a3.57,3.57,0,0,1-3.57,3.58h-7.86a3.57,3.57,0,0,1-3.57-3.58V75.74H226.05a3.57,3.57,0,0,1-3.57-3.57V64.31a3.57,3.57,0,0,1,3.57-3.57h26.09V34.66a3.57,3.57,0,0,1,3.57-3.58h7.86a3.57,3.57,0,0,1,3.57,3.58V60.74h26.08a3.57,3.57,0,0,1,3.57,3.57Z"/></g></g></g></g></svg>