<svg xmlns="http://www.w3.org/2000/svg" viewBox="0 0 351 387.26"><defs><style>.cls-1,.cls-2,.cls-3{fill:#fff;stroke-miterlimit:10;stroke-width:32px;}.cls-1{stroke:#96d6bc;}.cls-2{stroke:#9da3e0;}.cls-3{stroke:#6d91a1;}.cls-4{fill:#96b947;}</style></defs><g id="Layer_2" data-name="Layer 2"><g id="new_mc"><g id="collection"><rect class="cls-1" x="16" y="80.35" width="151" height="241" rx="10.24"/><rect class="cls-2" x="126" y="140.35" width="209" height="140" rx="10.24"/><rect class="cls-3" x="87" y="232.44" width="153" height="138.81" rx="10.24"/></g><g id="new"><g id="Layer_1-2" data-name="Layer 1-2"><path id="plus-circle" class="cls-4" d="M281.21,0a67.88,67.88,0,1,0,67.88,67.88A67.89,67.89,0,0,0,281.21,0Zm37.15,72.17a3.57,3.57,0,0,1-3.57,3.57H288.71v26.08a3.57,3.57,0,0,1-3.57,3.58h-7.86a3.58,3.58,0,0,1-3.58-3.58V75.74H247.62a3.57,3.57,0,0,1-3.57-3.57V64.31a3.57,3.57,0,0,1,3.57-3.57H273.7V34.66a3.58,3.58,0,0,1,3.58-3.58h7.86a3.57,3.57,0,0,1,3.57,3.58V60.74h26.08a3.57,3.57,0,0,1,3.57,3.57Z"/></g></g></g></g></svg>