<svg xmlns="http://www.w3.org/2000/svg" viewBox="0 0 300 330"><defs><style>.cls-1{fill:#f2f2f2;}.cls-2{fill:#6d91a1;}.cls-3{fill:#b3cc66;}</style></defs><g id="Layer_2" data-name="Layer 2"><g id="study"><g id="btns"><g id="new_timepoint"><circle id="background" class="cls-1" cx="150" cy="180" r="150"/><g id="timepoint"><ellipse class="cls-2" cx="205.68" cy="240.03" rx="36.32" ry="35.87"/><path class="cls-2" d="M150.28,97.86c-46,0-83.38,36.88-83.38,82.36s37.34,82.36,83.38,82.36A84.94,84.94,0,0,0,165,261.23a44.78,44.78,0,0,1-7.27-24.5c0-25.12,20.62-45.49,46.06-45.49a46.24,46.24,0,0,1,27.39,8.92,81.24,81.24,0,0,0,2.43-19.94C233.65,134.74,196.36,97.86,150.28,97.86ZM157,174.72a6.84,6.84,0,0,1-.33,2.11,5.59,5.59,0,0,1-.28.78,7.22,7.22,0,0,1-1,1.64,4.9,4.9,0,0,1-.39.43l-.19.19-34.18,33.71a6.89,6.89,0,0,1-9.64,0l-.54-.53a6.77,6.77,0,0,1,0-9.52l32.16-31.74V138.56a7.21,7.21,0,0,1,12.28-5,7.11,7.11,0,0,1,2.15,5Z"/></g><path id="plus" class="cls-3" d="M290,58.23a5.06,5.06,0,0,1-5.06,5.05h-37v37a5,5,0,0,1-5.05,5H231.73a5,5,0,0,1-5-5V63.3h-37a5.07,5.07,0,0,1-5.06-5.06V47.09A5.06,5.06,0,0,1,189.7,42h37v-37a5,5,0,0,1,5.05-5h11.14a5.06,5.06,0,0,1,5.06,5.05V42h37a5,5,0,0,1,5.05,5Z"/></g></g></g></g></svg>