<svg xmlns="http://www.w3.org/2000/svg" viewBox="0 0 1050 921.78"><defs><style>.cls-1,.cls-3{fill:none;stroke-miterlimit:10;stroke-width:20px;}.cls-1{stroke:#6d91a1;}.cls-2{fill:#c7dde2;}.cls-3{stroke:#c7dde2;}.cls-4{fill:#6d91a1;}</style></defs><title>no-results</title><g id="Layer_2" data-name="Layer 2"><g id="no-results"><polyline class="cls-1" points="769 744.83 10 744.83 10 10 1023.44 10 1023.44 714.9"/><rect class="cls-2" x="10" y="51.79" width="1013.44" height="41.79"/><rect class="cls-1" x="10" y="10" width="1013.44" height="83.58"/><path class="cls-3" d="M421.84,370.15h70.87c18.56,0,33.74-13.94,33.74-31a29.65,29.65,0,0,0-9.91-21.87,34.94,34.94,0,0,0-19.66-8.86c-.07-16.86-15-30.51-33.36-30.51a36.14,36.14,0,0,0-4.19.24c-3-21.35-22.92-37.83-47-37.83-16.49,0-31,7.73-39.49,19.45"/><path class="cls-1" d="M425.47,355.52a43.26,43.26,0,0,1-43.13,43.13H170.57a43.14,43.14,0,0,1-5.33-85.93,42.65,42.65,0,0,1,42.65-42.49,41.09,41.09,0,0,1,5.35.34A60.59,60.59,0,0,1,323.79,245a55.78,55.78,0,0,1,64.3,67.8A43.28,43.28,0,0,1,425.47,355.52Z"/><circle class="cls-4" cx="959.88" cy="51.79" r="9.58"/><circle class="cls-4" cx="925.06" cy="51.79" r="9.58"/><circle class="cls-4" cx="890.23" cy="51.79" r="9.58"/><polygon class="cls-2" points="703.43 385.39 753.4 378.9 831.3 412.86 859.51 483.9 827.45 567.41 703.43 385.39"/><path id="search" class="cls-1" d="M570.67,452A186,186,0,0,0,817.13,665.12l148,228.13a40.85,40.85,0,0,0,56.34,12h0a40.86,40.86,0,0,0,12-56.35l-148-228.13A186,186,0,1,0,570.67,452Zm79.68,17a104.5,104.5,0,1,1,14.54,78.64A103.77,103.77,0,0,1,650.35,469Z"/></g></g></svg>