<svg xmlns="http://www.w3.org/2000/svg" viewBox="0 0 300 300"><defs><style>.cls-1{fill:#f2f2f2;}.cls-2{fill:#b3cc66;}</style></defs><g id="Layer_2" data-name="Layer 2"><g id="study"><g id="btns"><g id="save"><circle id="background" class="cls-1" cx="150" cy="150" r="150"/><path class="cls-2" d="M227.6,114.6l-94.82,94.82a9.75,9.75,0,0,1-13.79,0l-10.24-10.24a3.29,3.29,0,0,1-.48-.58L72.81,163.14a4.74,4.74,0,0,1,0-6.75l13.74-13.76a4.78,4.78,0,0,1,6.75,0l29.11,29.11a5,5,0,0,0,7.05,0L207.1,94.09a4.78,4.78,0,0,1,6.75,0l13.75,13.75A4.77,4.77,0,0,1,227.6,114.6Z"/></g></g></g></g></svg>