<svg xmlns="http://www.w3.org/2000/svg" viewBox="0 0 397.77 335"><defs><style>.cls-1{fill:#407085;}.cls-2{fill:#6d91a1;}.cls-3{fill:#e48080;}.cls-4{fill:#c0d4d8;}.cls-5{fill:#fff;}</style></defs><title>select_th</title><g id="Layer_2" data-name="Layer 2"><g id="select_th"><path id="shadow" class="cls-1" d="M397.48,293.35,353.54,133.81a9,9,0,0,0-8.71-6.65H330.64l-5-16.68a9,9,0,0,0-7.76-6.38,120.44,120.44,0,0,1-40.43-12.79,68.44,68.44,0,0,0-33.1-8.56A70.73,70.73,0,0,0,211,91.27a48.82,48.82,0,0,0-12.26,10.33,74.18,74.18,0,0,0-16.21-12.66c-8-4.3-19-6.67-31-6.67A79.7,79.7,0,0,0,108.63,94C93.71,103.61,83.82,104.1,82,104.1h-.79a9.11,9.11,0,0,0-8.7,6.44L70,118.75a8.82,8.82,0,0,0-1.17,2.53s-.55,2.15-1.52,5.88H55.75a9.11,9.11,0,0,0-8.69,6.53L.83,293.23a8.77,8.77,0,0,0-.36,2.49,9,9,0,0,0,10.9,8.88,431.29,431.29,0,0,1,75.78-7.84c30.05,0,51.44,5.13,61.83,14.83C165.62,327.14,183,335,200.52,335h2.58c17.08-.75,33.21-9,46.61-23.89,8.13-9,31.56-14.19,64.27-14.19,8,0,16.31.35,22.78.93l50.67,6.91a8.15,8.15,0,0,0,1.21,0,9.16,9.16,0,0,0,8.84-11.41ZM293.55,252.11a114.68,114.68,0,0,0-15.93,1c-28.19,4-41.31,9.73-51.84,14.33l-1.42.61c-1.48.63-2.9,1.24-4.3,1.78A109.52,109.52,0,0,0,198,283a160.41,160.41,0,0,0-23.71-15.1c-14.68-7.34-29.63-12.39-58.78-14.82-2.94-.24-6.38-.36-10.23-.36a246.2,246.2,0,0,0-51.42,5.59c4.56-21.91,16.07-68.87,30.4-124L88,121.63a79.61,79.61,0,0,0,30.4-12.51,62.82,62.82,0,0,1,33.18-8.81c8.81,0,17,1.66,22.41,4.56a66.36,66.36,0,0,1,14.9,12.6v66.14a9.14,9.14,0,0,0,0,1.48,9,9,0,1,0,18-1.48V120c3.36-4.44,9-10.75,12.58-12.77a55.13,55.13,0,0,1,25.24-6.35,48.67,48.67,0,0,1,23.89,6.29A136.4,136.4,0,0,0,310,121.3l3.83,12.83a5.79,5.79,0,0,1,.16.83L345.05,258.8C332.06,255.8,312.18,252.11,293.55,252.11Z"/><path id="thes" class="cls-2" d="M397,283.13,353.07,123.58a9.06,9.06,0,0,0-8.72-6.65H330.17l-5-16.68a9,9,0,0,0-7.76-6.38A120,120,0,0,1,277,81.08a68.46,68.46,0,0,0-33.1-8.55A70.57,70.57,0,0,0,210.55,81a48.86,48.86,0,0,0-12.26,10.34,74,74,0,0,0-16.22-12.67c-8-4.3-19-6.67-31-6.67a79.7,79.7,0,0,0-42.9,11.7C93.24,93.38,83.35,93.87,81.51,93.87h-.79a9.11,9.11,0,0,0-8.7,6.44l-2.47,8.21a9.18,9.18,0,0,0-1.18,2.54s-.54,2.14-1.52,5.87H55.28a9.1,9.1,0,0,0-8.69,6.53L.36,283A8.77,8.77,0,0,0,0,285.49a9.06,9.06,0,0,0,9,9.09,9.64,9.64,0,0,0,1.86-.21,432.34,432.34,0,0,1,75.78-7.84c30.06,0,51.44,5.13,61.84,14.84,16.64,15.54,34,23.41,51.54,23.41h2.57c17.09-.75,33.22-9,46.62-23.9,8.13-9,31.56-14.19,64.27-14.19,8,0,16.31.35,22.78.94L387,294.54a8.15,8.15,0,0,0,1.21,0A9.16,9.16,0,0,0,397,283.13ZM293.08,241.88a113.17,113.17,0,0,0-15.93,1.06c-28.19,4-41.31,9.72-51.85,14.33l-1.42.6c-1.47.63-2.89,1.24-4.29,1.79a109.2,109.2,0,0,0-22.07,13.11,161.33,161.33,0,0,0-23.72-15.1c-14.67-7.34-29.63-12.38-58.77-14.82-2.94-.24-6.39-.36-10.24-.36a246.18,246.18,0,0,0-51.41,5.59c4.56-21.91,16.07-68.86,30.4-124l3.79-12.67A79.44,79.44,0,0,0,118,98.9a62.72,62.72,0,0,1,33.18-8.82c8.81,0,17,1.66,22.41,4.56a66.14,66.14,0,0,1,14.9,12.61v66.13a9.14,9.14,0,0,0,0,1.48,9,9,0,1,0,18-1.48V109.72c3.36-4.44,9-10.74,12.58-12.77a55,55,0,0,1,25.23-6.34,48.56,48.56,0,0,1,23.9,6.28,136.45,136.45,0,0,0,41.32,14.19l3.84,12.83a5.3,5.3,0,0,1,.16.83l31.07,123.83C331.59,245.57,311.7,241.88,293.08,241.88Z"/><path id="lines" class="cls-3" d="M179.86,193.84a6.88,6.88,0,0,1-6.5,5.19,6.37,6.37,0,0,1-2.44-.49,71.14,71.14,0,0,0-24.42-3.76A104.64,104.64,0,0,0,95.15,209a6.22,6.22,0,0,1-3.1.82,6.81,6.81,0,0,1-6.29-4.58,7.83,7.83,0,0,1,3.17-9.53c19-10.67,38.33-16,57.6-16a80.15,80.15,0,0,1,29.37,4.92A7.72,7.72,0,0,1,179.86,193.84Zm-4,20.78a98,98,0,0,0-35.7-6.18,114.81,114.81,0,0,0-56.55,15A7.83,7.83,0,0,0,80.46,233a6.81,6.81,0,0,0,6.31,4.62,6.3,6.3,0,0,0,3.12-.83,102,102,0,0,1,50.26-13.28,90.12,90.12,0,0,1,30.83,5,6.18,6.18,0,0,0,2.44.49,6.86,6.86,0,0,0,6.44-5.2A7.69,7.69,0,0,0,175.88,214.62Zm-76.8-34.87a6.32,6.32,0,0,0,3.12-.82c16-9,31.45-13.49,45.89-13.49,13.79,0,21.65,4.3,21.72,4.34a6.31,6.31,0,0,0,3.2.88,6.78,6.78,0,0,0,6.29-4.43,7.83,7.83,0,0,0-3-9.59c-1.07-.63-11-6.25-28.18-6.25-16.53,0-34.1,5.15-52.19,15.25a7.84,7.84,0,0,0-3.16,9.53A6.81,6.81,0,0,0,99.08,179.75Zm5.31-30.06a6.21,6.21,0,0,0,3.2-.88c15.18-8.85,28.8-13.34,40.48-13.34,12.61,0,18.34,5.28,18.79,5.64a6.46,6.46,0,0,0,4.74,2.08,6.57,6.57,0,0,0,5.26-2.7,8,8,0,0,0-.38-10c-.94-1-9.69-10.09-28.18-10.09-13.92,0-29.76,5.13-47,15.22a7.84,7.84,0,0,0-3,9.56,6.81,6.81,0,0,0,6.16,4.53Zm154.94,61.23h0V209h0a95.84,95.84,0,0,0-35.22,6.18,7.75,7.75,0,0,0-3.93,9.25,6.84,6.84,0,0,0,6.46,5.22,6.17,6.17,0,0,0,2.47-.51,87.39,87.39,0,0,1,30.36-5A99.6,99.6,0,0,1,309,237.43a6.32,6.32,0,0,0,3.12.85,6.74,6.74,0,0,0,6.23-4.61,7.83,7.83,0,0,0-3.13-9.49,112,112,0,0,0-55.82-15Zm-30.94-67a6.42,6.42,0,0,0,4.83-2.16c.17-.19,5.64-5.63,18.22-5.63,11.46,0,24.93,4.5,40,13.43a6.37,6.37,0,0,0,3.21.9,6.78,6.78,0,0,0,6.22-4.49,7.87,7.87,0,0,0-3-9.54c-17.06-10.09-32.69-15.22-46.45-15.22v1.88h0v-2h0c-18.28,0-26.94,9.07-27.88,10.1a8.05,8.05,0,0,0-.49,10A6.52,6.52,0,0,0,228.39,144Zm-1.75,55.73a6.5,6.5,0,0,0,2.5-.51,68,68,0,0,1,24-3.76,102.41,102.41,0,0,1,50.69,14.15,6.21,6.21,0,0,0,3.12.84,6.77,6.77,0,0,0,6.26-4.58,7.88,7.88,0,0,0-3.24-9.54c-18.67-10.6-37.8-16-56.83-16v1.87h0v-1.87h0a77.65,77.65,0,0,0-29,4.94,7.7,7.7,0,0,0-4,9.15A6.82,6.82,0,0,0,226.64,199.69ZM227,171.3a6.42,6.42,0,0,0,3.23-.88s7.76-4.33,21.35-4.33c14.24,0,29.45,4.53,45.24,13.47a6.29,6.29,0,0,0,3.11.85,6.75,6.75,0,0,0,6.24-4.6,7.83,7.83,0,0,0-3.14-9.49c-17.84-10.13-35.18-15.27-51.51-15.27h0c-16.91,0-26.73,5.63-27.79,6.25a7.84,7.84,0,0,0-2.93,9.55A6.77,6.77,0,0,0,227,171.3Z"/><g id="v"><circle class="cls-4" cx="271.29" cy="33" r="21.54"/><circle class="cls-4" cx="125.6" cy="33" r="21.54"/><circle class="cls-2" cx="239.73" cy="33" r="21.54"/><circle class="cls-2" cx="156.79" cy="33" r="21.54"/><circle class="cls-3" cx="199.1" cy="33" r="33"/><path class="cls-5" d="M193.71,26.79,198.41,40l5.06-13.76a8.11,8.11,0,0,1,1.18-2.35,2.13,2.13,0,0,1,1.74-.69,2.6,2.6,0,0,1,1.88.75,2.3,2.3,0,0,1,.78,1.72,3.6,3.6,0,0,1-.14.89,8.31,8.31,0,0,1-.32,1l-.42,1L202.6,42.33c-.15.4-.36.91-.6,1.51a8.19,8.19,0,0,1-.83,1.57,3.3,3.3,0,0,1-1.13,1,3.41,3.41,0,0,1-1.63.36,3.2,3.2,0,0,1-2-.56A3.88,3.88,0,0,1,195.36,45c-.23-.44-.63-1.33-1.18-2.65l-5.53-13.67-.39-1a7.89,7.89,0,0,1-.34-1,3.43,3.43,0,0,1-.14-.92,2.22,2.22,0,0,1,.36-1.18,2.83,2.83,0,0,1,2.38-1.33,2.2,2.2,0,0,1,2,.83A13.16,13.16,0,0,1,193.71,26.79Z"/></g></g></g></svg>