<svg xmlns="http://www.w3.org/2000/svg" viewBox="0 0 298.57 372.75"><defs><style>.cls-1{fill:#dfe9ea;}.cls-2{fill:#c0d685;}.cls-3{fill:#8dabb5;}</style></defs><title>upload_graphic</title><g id="Layer_2" data-name="Layer 2"><g id="upload"><path id="file" class="cls-1" d="M252.29,249.72l-23.85-25.53a8.92,8.92,0,0,0-6.53-2.83H169.18a8.93,8.93,0,0,0-8.94,8.93V332.41a8.93,8.93,0,0,0,8.94,8.93h76.58a8.93,8.93,0,0,0,8.94-8.93V255.82A8.92,8.92,0,0,0,252.29,249.72Zm-30.14,4.82v-24l22.42,24Z"/><path id="file-2" data-name="file" class="cls-1" d="M160.85,249.76,137,224.23a9,9,0,0,0-6.52-2.83H77.73a8.93,8.93,0,0,0-8.94,8.93V332.45a8.94,8.94,0,0,0,8.94,8.94h76.59a8.93,8.93,0,0,0,8.93-8.94V255.86A9,9,0,0,0,160.85,249.76Zm-30.15,4.83v-24l22.42,24Z"/><path class="cls-2" d="M298.13,119.28c-2.7-21.73-17.84-39.39-38.1-46.87a4.47,4.47,0,0,1-2.62-2.61,65.2,65.2,0,0,0-8.86-16A66.33,66.33,0,0,0,205.08,28a70.41,70.41,0,0,0-10.36-.76h0a4.33,4.33,0,0,1-3.07-1.29,88.91,88.91,0,0,0-124.45-1L66,26A86.41,86.41,0,0,0,44.6,61.62a4.47,4.47,0,0,1-2.38,2.71A76,76,0,0,0,5.78,100.11,55,55,0,0,0,.62,117.76,96,96,0,0,0,0,130.22C.46,160.38,25.87,184,57.83,184h9.56a4.34,4.34,0,0,0,4.34-4.34V160a4.34,4.34,0,0,0-4.34-4.34H57.83c-14.92,0-27.21-10.9-27.43-25.76a67.49,67.49,0,0,1,.42-9,28.39,28.39,0,0,1,2.6-9C39.86,98.74,52.62,88,67.51,86.48a4.33,4.33,0,0,0,3.86-4c2.35-30.32,27.17-54.16,57.51-54.16a57.64,57.64,0,0,1,48.81,27.35,4.31,4.31,0,0,0,5.12,1.87,35.35,35.35,0,0,1,11.9-2,36.71,36.71,0,0,1,5.54.42C218.13,58.58,232,74.84,232,92.84c0,3-1,4,4,4l2.72.14a29.39,29.39,0,0,1,21,50.06,28.48,28.48,0,0,1-20.38,8.66h-9.82a4.34,4.34,0,0,0-4.34,4.34v19.67a4.34,4.34,0,0,0,4.34,4.34h9.82a60.24,60.24,0,0,0,42.78-17.8A56.71,56.71,0,0,0,298.13,119.28Z"/><path class="cls-3" d="M178.18,190H164.5v38.16a4.47,4.47,0,0,1-4.46,4.45H140.38a4.48,4.48,0,0,1-4.46-4.45V190H123.17a5.52,5.52,0,0,1-4.35-8.9L146.33,146a5.53,5.53,0,0,1,7.75-1,5.63,5.63,0,0,1,.94,1l27.49,35.1a5.51,5.51,0,0,1-4.33,8.9Z"/><path id="file-3" data-name="file" class="cls-3" d="M224.78,247.84,192.25,213a12.22,12.22,0,0,0-8.89-3.87h-71.9a12.18,12.18,0,0,0-12.18,12.19V360.57a12.18,12.18,0,0,0,12.18,12.18H215.87a12.18,12.18,0,0,0,12.19-12.18V256.16A12.23,12.23,0,0,0,224.78,247.84Zm-41.1,6.58V221.7l30.57,32.72Z"/></g></g></svg>